<svg width="18" height="18" viewBox="0 0 18 18" fill="none" xmlns="http://www.w3.org/2000/svg">
<path d="M9.43168 17.4371C7.05604 17.4371 4.82699 16.5164 3.1551 14.8445C1.48321 13.1727 0.5625 10.9435 0.5625 8.56786C0.562146 6.92901 1.01592 5.32212 1.87347 3.92554C2.73102 2.52895 3.95878 1.39732 5.4205 0.656224C5.57088 0.579564 5.74051 0.548897 5.90821 0.56805C6.07592 0.587203 6.23427 0.655328 6.36349 0.76392C6.49272 0.872513 6.58709 1.01676 6.63484 1.17866C6.68259 1.34056 6.6816 1.51294 6.63198 1.67428C6.21487 3.02154 6.17388 4.45717 6.51343 5.82604C6.85298 7.19491 7.56015 8.44496 8.55854 9.4411C9.27502 10.1629 10.1276 10.7354 11.0668 11.1255C12.006 11.5156 13.0133 11.7155 14.0303 11.7137C14.8083 11.7143 15.582 11.5976 16.3252 11.3676C16.4866 11.3179 16.659 11.3169 16.8209 11.3646C16.9828 11.4124 17.1271 11.5068 17.2357 11.636C17.3443 11.7652 17.4124 11.9236 17.4316 12.0913C17.4507 12.259 17.42 12.4287 17.3433 12.5791C16.6022 14.0408 15.4706 15.2686 14.074 16.1261C12.6774 16.9837 11.0705 17.4375 9.43168 17.4371ZM5.3898 1.9607C4.25632 2.65035 3.32 3.62085 2.67142 4.77832C2.02283 5.93579 1.68393 7.24106 1.6875 8.56786C1.6875 12.838 5.1615 16.3121 9.43168 16.3121C10.7585 16.3157 12.0638 15.9768 13.2212 15.3282C14.3787 14.6797 15.3492 13.7433 16.0389 12.6098C15.3803 12.7623 14.7064 12.8391 14.0304 12.8388C12.8656 12.841 11.7119 12.6122 10.6361 12.1655C9.56036 11.7189 8.58386 11.0633 7.76317 10.2367C6.697 9.17255 5.9196 7.85426 5.50434 6.40627C5.08908 4.95828 5.04966 3.42836 5.3898 1.96091V1.9607Z" fill="#222222"/>
</svg>
