<svg width="20" height="15" viewBox="0 0 20 15" fill="none" xmlns="http://www.w3.org/2000/svg">
<g clip-path="url(#clip0_67_1190)">
<path d="M2.11872 14.5318C0.953706 14.5318 0.00561523 13.5533 0.00561523 12.3511C0.00561523 11.1489 0.953196 10.1704 2.11872 10.1704C3.28425 10.1704 4.23234 11.1489 4.23234 12.3511C4.23234 13.5533 3.28374 14.5318 2.11872 14.5318ZM2.11872 11.2282C1.52971 11.2282 1.05094 11.7315 1.05094 12.3506C1.05094 12.9696 1.52971 13.473 2.11872 13.473C2.70774 13.473 3.18702 12.9696 3.18702 12.3506C3.18702 11.7315 2.70774 11.2282 2.11872 11.2282Z" fill="#222222"/>
<path d="M7.36118 6.76221C6.19616 6.76221 5.24756 5.78375 5.24756 4.58153C5.24756 3.37983 6.19565 2.40137 7.36118 2.40137C8.5267 2.40137 9.47428 3.37983 9.47428 4.58153C9.47428 5.78375 8.5267 6.76221 7.36118 6.76221ZM7.36118 3.45967C6.77216 3.45967 6.29288 3.96298 6.29288 4.58153C6.29288 5.2006 6.77216 5.70391 7.36118 5.70391C7.95019 5.70391 8.42896 5.2006 8.42896 4.58153C8.42896 3.96298 7.95019 3.45967 7.36118 3.45967Z" fill="#222222"/>
<path d="M7.70728 6.37602L8.45809 5.63965L11.2896 8.59778L10.5388 9.33415L7.70728 6.37602Z" fill="#222222"/>
<path d="M2.49268 10.9472L6.28836 5.76855L7.12748 6.39899L3.33179 11.5773L2.49268 10.9472Z" fill="#222222"/>
<path d="M12.4766 8.27611L16.3797 3.0957L17.2109 3.73751L13.3078 8.91792L12.4766 8.27611Z" fill="#222222"/>
<path d="M17.8814 4.36039C16.7164 4.36039 15.7678 3.38192 15.7678 2.1797C15.7678 0.977488 16.7164 -0.000976562 17.8814 -0.000976562C19.0465 -0.000976562 19.9945 0.977488 19.9945 2.1797C19.9945 3.38192 19.047 4.36039 17.8814 4.36039ZM17.8814 1.05733C17.2924 1.05733 16.8131 1.56064 16.8131 2.1797C16.8131 2.79877 17.2924 3.30208 17.8814 3.30208C18.4705 3.30208 18.9492 2.79877 18.9492 2.1797C18.9492 1.56064 18.4705 1.05733 17.8814 1.05733Z" fill="#222222"/>
<path d="M11.88 12.2046C10.7149 12.2046 9.76685 11.2262 9.76685 10.0239C9.76685 8.82173 10.7144 7.84326 11.88 7.84326C13.0455 7.84326 13.9936 8.82173 13.9936 10.0239C13.9936 11.2262 13.045 12.2046 11.88 12.2046ZM11.88 8.90156C11.2909 8.90156 10.8122 9.40488 10.8122 10.0239C10.8122 10.643 11.2909 11.1463 11.88 11.1463C12.469 11.1463 12.9482 10.643 12.9482 10.0239C12.9482 9.40488 12.469 8.90156 11.88 8.90156Z" fill="#222222"/>
</g>
<defs>
<clipPath id="clip0_67_1190">
<rect width="20" height="14.5455" fill="white"/>
</clipPath>
</defs>
</svg>
