<svg width="17" height="20" viewBox="0 0 17 20" fill="none" xmlns="http://www.w3.org/2000/svg">
<g clip-path="url(#clip0_67_1279)">
<path d="M4.89303 0.0826451L4.0143 0.352645C3.23055 0.593105 2.53058 1.05664 1.99679 1.68867C1.46301 2.3207 1.11764 3.09491 1.00134 3.92015C0.636844 6.50515 1.45175 9.52765 3.41662 12.9939C5.37657 16.4514 7.53412 18.6789 9.90889 19.6539C10.6719 19.9671 11.5072 20.0506 12.3154 19.8944C13.1237 19.7381 13.8709 19.3488 14.4682 18.7726L15.1346 18.1301C15.5664 17.7136 15.835 17.1516 15.8905 16.5486C15.946 15.9455 15.7847 15.3424 15.4365 14.8514L13.7723 12.5014C13.5474 12.1841 13.2305 11.9465 12.8663 11.8219C12.502 11.6973 12.1086 11.6918 11.7412 11.8064L9.22407 12.5901L9.15903 12.6026C8.88166 12.6439 8.24225 12.0326 7.44453 10.6251C6.60998 9.15265 6.43571 8.2914 6.66644 8.0689L7.94771 6.85265C8.4156 6.40807 8.73512 5.82548 8.86146 5.18658C8.9878 4.54768 8.91461 3.88453 8.65216 3.29015L7.84216 1.4514C7.59781 0.897526 7.16388 0.453171 6.62142 0.201296C6.07895 -0.0505789 5.46502 -0.0927539 4.89425 0.0826451H4.89303ZM6.72166 1.9639L7.53289 3.80265C7.69064 4.15918 7.73475 4.5571 7.65903 4.94049C7.5833 5.32388 7.39155 5.67347 7.11071 5.94015L5.82698 7.15765C5.00471 7.9489 5.27716 9.30265 6.38048 11.2501C7.41998 13.0826 8.36744 13.9876 9.38484 13.8301L9.53703 13.7976L12.0996 13.0014C12.2221 12.9631 12.3533 12.9648 12.4748 13.0062C12.5962 13.0477 12.7019 13.1269 12.777 13.2326L14.4412 15.5826C14.6155 15.8282 14.6962 16.1299 14.6685 16.4316C14.6407 16.7332 14.5063 17.0143 14.2903 17.2226L13.6238 17.8651C13.1972 18.2764 12.6636 18.5543 12.0864 18.6658C11.5092 18.7772 10.9128 18.7176 10.3679 18.4939C8.28398 17.6389 6.31421 15.6051 4.47944 12.3689C2.64098 9.12515 1.89725 6.3664 2.21634 4.09765C2.29936 3.50803 2.54609 2.95486 2.92747 2.5033C3.30885 2.05174 3.80899 1.7206 4.36898 1.5489L5.24894 1.2789C5.53422 1.19158 5.84096 1.21293 6.11193 1.33897C6.3829 1.465 6.59962 1.68712 6.72166 1.9639Z" fill="#222222"/>
</g>
<defs>
<clipPath id="clip0_67_1279">
<rect width="16.3636" height="20" fill="white"/>
</clipPath>
</defs>
</svg>
