<svg width="19" height="24" viewBox="0 0 19 24" fill="none" xmlns="http://www.w3.org/2000/svg">
<g clip-path="url(#clip0_67_1151)">
<path d="M6.15854 17.2678H11.2162C11.334 17.2678 11.4469 17.221 11.5302 17.1377C11.6135 17.0544 11.6603 16.9414 11.6603 16.8236C11.6603 16.7058 11.6135 16.5928 11.5302 16.5095C11.4469 16.4262 11.334 16.3794 11.2162 16.3794H6.15854C6.04074 16.3794 5.92776 16.4262 5.84445 16.5095C5.76115 16.5928 5.71436 16.7058 5.71436 16.8236C5.71436 16.9414 5.76115 17.0544 5.84445 17.1377C5.92776 17.221 6.04074 17.2678 6.15854 17.2678Z" fill="#222222"/>
<path d="M3.87265 19.6555H13.7471C13.8649 19.6555 13.9778 19.6087 14.0611 19.5254C14.1444 19.4421 14.1912 19.3291 14.1912 19.2113C14.1912 19.0935 14.1444 18.9805 14.0611 18.8972C13.9778 18.8139 13.8649 18.7671 13.7471 18.7671H3.87265C3.75485 18.7671 3.64187 18.8139 3.55857 18.8972C3.47527 18.9805 3.42847 19.0935 3.42847 19.2113C3.42847 19.3291 3.47527 19.4421 3.55857 19.5254C3.64187 19.6087 3.75485 19.6555 3.87265 19.6555Z" fill="#222222"/>
<path d="M0.293812 23.9729C0.347143 23.9904 0.403934 23.9994 0.461237 23.9994C0.525687 23.9994 0.589432 23.9882 0.648414 23.9665C0.707397 23.9448 0.760326 23.913 0.803831 23.8733L2.19873 22.6027L3.59374 23.8733C3.63738 23.9131 3.69043 23.9448 3.74952 23.9665C3.80861 23.9882 3.87245 23.9994 3.937 23.9994C4.00155 23.9994 4.06539 23.9882 4.12448 23.9665C4.18358 23.9448 4.23662 23.9131 4.28026 23.8733L5.67405 22.6031L7.06656 23.8733C7.11019 23.9132 7.16327 23.945 7.22242 23.9668C7.28157 23.9886 7.3455 23.9998 7.41014 23.9998C7.47476 23.9999 7.53867 23.9886 7.59782 23.9669C7.65697 23.9452 7.71006 23.9134 7.75373 23.8736L9.14693 22.6034L10.5399 23.8736C10.5836 23.9134 10.6366 23.9452 10.6958 23.967C10.7549 23.9888 10.8189 24 10.8835 24C10.9481 24 11.012 23.9888 11.0712 23.967C11.1303 23.9452 11.1834 23.9134 11.2271 23.8736L12.6199 22.6034L14.0128 23.8736C14.0564 23.9134 14.1095 23.9452 14.1687 23.967C14.2278 23.9888 14.2917 24 14.3564 24C14.421 24 14.4849 23.9888 14.5441 23.967C14.6032 23.9452 14.6563 23.9134 14.7 23.8736L16.0918 22.6038L17.4821 23.873C17.545 23.9309 17.6274 23.9715 17.7185 23.9893C17.8096 24.0072 17.9051 24.0015 17.9922 23.973C18.0794 23.9445 18.1541 23.8945 18.2065 23.8297C18.2589 23.7649 18.2865 23.6884 18.2857 23.6102V0.38992C18.2864 0.311685 18.2587 0.235115 18.2062 0.170327C18.1537 0.10554 18.0789 0.0555846 17.9917 0.0270623C17.9046 -0.00145994 17.8091 -0.00720683 17.7179 0.010581C17.6267 0.0283689 17.5442 0.0688542 17.4811 0.126688L16.0866 1.3973L14.6917 0.126688C14.6481 0.086933 14.5951 0.0551906 14.536 0.0334755C14.4769 0.0117604 14.4131 0.00054691 14.3486 0.00054691C14.284 0.00054691 14.2202 0.0117604 14.1611 0.0334755C14.102 0.0551906 14.049 0.086933 14.0054 0.126688L12.6117 1.39686L11.2192 0.126688C11.1755 0.0868316 11.1224 0.0549995 11.0633 0.033216C11.0041 0.0114324 10.9402 0.000174036 10.8756 0.00015687C10.811 0.000136942 10.747 0.0113496 10.6879 0.0330823C10.6287 0.0548151 10.5757 0.0865927 10.532 0.126396L9.13878 1.39657L7.74581 0.126396C7.70216 0.0865642 7.64908 0.0547573 7.58992 0.0329973C7.53077 0.0112372 7.46685 0 7.40222 0C7.3376 0 7.27367 0.0112372 7.21452 0.0329973C7.15537 0.0547573 7.10229 0.0865642 7.05864 0.126396L5.66625 1.39691L4.27339 0.126736C4.22975 0.0869048 4.17666 0.055098 4.11751 0.0333379C4.05836 0.0115779 3.99444 0.000340658 3.92981 0.000340658C3.86518 0.000340658 3.80126 0.0115779 3.74211 0.0333379C3.68296 0.055098 3.62987 0.0869048 3.58622 0.126736L2.19442 1.39652L0.803657 0.127028C0.740764 0.0691191 0.658299 0.0285466 0.567191 0.0106871C0.476082 -0.00717242 0.380631 -0.00147596 0.293484 0.0270216C0.206337 0.0555192 0.131608 0.105473 0.0792004 0.170263C0.0267924 0.235053 -0.000821133 0.311622 1.85988e-05 0.389823V23.6101C-0.000592813 23.6883 0.0271498 23.7648 0.0795932 23.8296C0.132037 23.8943 0.206721 23.9443 0.293812 23.9729ZM0.931773 1.39166L1.85386 2.23693C1.89716 2.27684 1.94995 2.30878 2.00885 2.33069C2.06774 2.3526 2.13146 2.36401 2.19593 2.36419H2.19546C2.26009 2.36403 2.32396 2.35264 2.38303 2.33074C2.4421 2.30884 2.49508 2.27691 2.53858 2.23698L3.93039 0.966804L5.32307 2.23654C5.36672 2.27632 5.41978 2.30809 5.4789 2.32982C5.53802 2.35155 5.6019 2.36278 5.66648 2.36278C5.73107 2.36278 5.79495 2.35155 5.85406 2.32982C5.91318 2.30809 5.96625 2.27632 6.00989 2.23654L7.40269 0.966366L8.7956 2.23654C8.83925 2.27633 8.89232 2.30811 8.95144 2.32984C9.01056 2.35158 9.07445 2.3628 9.13904 2.3628C9.20364 2.3628 9.26752 2.35158 9.32664 2.32984C9.38577 2.30811 9.43884 2.27633 9.48248 2.23654L10.8757 0.966366L12.2681 2.23722C12.3117 2.27717 12.3648 2.30911 12.4239 2.33101C12.4831 2.35291 12.547 2.36429 12.6117 2.36443C12.6764 2.36429 12.7403 2.35292 12.7995 2.33104C12.8586 2.30917 12.9117 2.27727 12.9553 2.23737L14.349 0.966317L15.7442 2.23649C15.7878 2.27622 15.8409 2.30793 15.9 2.32962C15.9591 2.35131 16.0229 2.3625 16.0875 2.36249C16.1516 2.36246 16.2149 2.35123 16.2735 2.3295C16.3321 2.30778 16.3846 2.27604 16.4277 2.23635L17.3539 1.39V22.6082L16.4319 21.763C16.3885 21.7231 16.3358 21.6912 16.2769 21.6693C16.218 21.6474 16.1542 21.636 16.0898 21.6358H16.0905C16.0259 21.636 15.962 21.6474 15.9029 21.6693C15.8438 21.6912 15.7909 21.7231 15.7474 21.763L14.3556 23.0332L12.9631 21.7636C12.9194 21.7238 12.8663 21.6921 12.8072 21.6703C12.7481 21.6486 12.6842 21.6374 12.6196 21.6374C12.5551 21.6374 12.4912 21.6486 12.4321 21.6703C12.3729 21.6921 12.3199 21.7238 12.2762 21.7636L10.8834 23.0338L9.49052 21.7636C9.44687 21.7238 9.3938 21.692 9.33468 21.6703C9.27556 21.6486 9.21167 21.6373 9.14708 21.6373C9.08249 21.6373 9.0186 21.6486 8.95948 21.6703C8.90035 21.692 8.84729 21.7238 8.80364 21.7636L7.41044 23.0338L6.01799 21.7629C5.9744 21.723 5.92134 21.691 5.86219 21.6691C5.80305 21.6472 5.7391 21.6359 5.6744 21.6357C5.60973 21.6359 5.54579 21.6472 5.48665 21.6691C5.4275 21.691 5.37444 21.7229 5.33082 21.7628L3.93668 23.0337L2.54155 21.7635C2.49786 21.7237 2.44476 21.692 2.38561 21.6703C2.32646 21.6486 2.26256 21.6375 2.19797 21.6375C2.13387 21.6375 2.07049 21.6488 2.01189 21.6705C1.9533 21.6922 1.9008 21.724 1.85776 21.7637L0.931773 22.61V1.39166Z" fill="#222222"/>
<path d="M6.83351 11.5119H6.51948C6.38171 11.5119 6.24957 11.5667 6.15215 11.6641C6.05473 11.7615 6 11.8936 6 12.0314C6 12.1692 6.05473 12.3013 6.15215 12.3987C6.24957 12.4962 6.38171 12.5509 6.51948 12.5509H7.09325V13.2002C7.09325 13.338 7.14798 13.4702 7.2454 13.5676C7.34282 13.665 7.47495 13.7197 7.61273 13.7197C7.7505 13.7197 7.88263 13.665 7.98006 13.5676C8.07748 13.4702 8.13221 13.338 8.13221 13.2002V12.5509H8.45688V13.2002C8.45688 13.338 8.51161 13.4702 8.60904 13.5676C8.70646 13.665 8.83859 13.7197 8.97636 13.7197C9.11414 13.7197 9.24627 13.665 9.34369 13.5676C9.44111 13.4702 9.49585 13.338 9.49585 13.2002V12.5509H9.65377C10.0976 12.551 10.5308 12.4149 10.8949 12.161C11.2589 11.9072 11.5363 11.5477 11.6896 11.1312C11.8429 10.7146 11.8647 10.2611 11.7521 9.83178C11.6395 9.40246 11.3979 9.01803 11.0599 8.73038C11.3978 8.44089 11.6392 8.05506 11.7518 7.62456C11.8644 7.19407 11.8428 6.73945 11.6898 6.32158C11.5369 5.90372 11.2599 5.54255 10.8961 5.28644C10.5322 5.03033 10.0987 4.89151 9.65377 4.88856H9.49585V4.23921C9.49585 4.10143 9.44111 3.9693 9.34369 3.87188C9.24627 3.77446 9.11414 3.71973 8.97636 3.71973C8.83859 3.71973 8.70646 3.77446 8.60904 3.87188C8.51161 3.9693 8.45688 4.10143 8.45688 4.23921V4.88856H8.13221V4.23921C8.13221 4.10143 8.07748 3.9693 7.98006 3.87188C7.88263 3.77446 7.7505 3.71973 7.61273 3.71973C7.47495 3.71973 7.34282 3.77446 7.2454 3.87188C7.14798 3.9693 7.09325 4.10143 7.09325 4.23921V4.88856H6.51948C6.38171 4.88856 6.24957 4.94329 6.15215 5.04071C6.05473 5.13813 6 5.27026 6 5.40804C6 5.54581 6.05473 5.67794 6.15215 5.77537C6.24957 5.87279 6.38171 5.92752 6.51948 5.92752H6.83351V11.5119ZM10.7839 10.3756C10.7838 10.6758 10.6649 10.9638 10.4532 11.1767C10.2415 11.3896 9.95425 11.5101 9.65403 11.5119H7.87247V9.23921H9.65377C9.95404 9.24096 10.2414 9.36144 10.4532 9.57435C10.6649 9.78726 10.7838 10.0753 10.7839 10.3756ZM8.74649 5.92752H9.65377C9.95515 5.92752 10.2442 6.04724 10.4573 6.26035C10.6704 6.47346 10.7901 6.7625 10.7901 7.06388C10.7901 7.36526 10.6704 7.6543 10.4573 7.86741C10.2442 8.08052 9.95515 8.20025 9.65377 8.20025H7.87247V5.92752H8.74649Z" fill="#222222"/>
</g>
<defs>
<clipPath id="clip0_67_1151">
<rect width="18.2857" height="24" fill="white"/>
</clipPath>
</defs>
</svg>
