<svg width="16" height="24" viewBox="0 0 16 24" fill="none" xmlns="http://www.w3.org/2000/svg">
<g clip-path="url(#clip0_53_13521)">
<path d="M8.01475 1.87501C7.75553 1.87314 7.54412 2.08173 7.54225 2.34048C7.54037 2.59923 7.7485 2.81064 8.00772 2.81251C8.26647 2.81439 8.47788 2.60626 8.47975 2.34751C8.48163 2.08876 8.2735 1.87736 8.01475 1.87501Z" fill="#222222"/>
<path d="M7.99316 4.68758C6.18327 4.67474 4.70104 6.13485 4.68735 7.94418C4.67371 9.75341 6.13462 11.2364 7.94394 11.25C7.95234 11.25 7.96068 11.2501 7.96907 11.2501C9.76687 11.2501 11.2362 9.79433 11.2498 7.9934C11.2634 6.18426 9.80254 4.70122 7.99316 4.68758ZM7.96898 10.3126C7.96307 10.3126 7.95688 10.3126 7.95098 10.3125C6.65858 10.3028 5.61505 9.24351 5.6248 7.95121C5.63451 6.66473 6.68394 5.62494 7.96813 5.62494C7.97404 5.62494 7.98023 5.62499 7.98613 5.62504C9.27852 5.63479 10.3221 6.69407 10.3123 7.98637C10.3026 9.27285 9.25316 10.3126 7.96898 10.3126Z" fill="#222222"/>
<path d="M10.0134 2.23069C9.7696 2.14416 9.50152 2.27189 9.41499 2.51593C9.32851 2.75996 9.45624 3.02785 9.70023 3.11438C11.7649 3.84614 13.1409 5.8126 13.1244 8.00761C13.1225 8.26646 13.3308 8.47791 13.5897 8.47988C13.5909 8.47988 13.5921 8.47988 13.5933 8.47988C13.8505 8.47988 14.06 8.27232 14.062 8.01464C14.0815 5.42025 12.4545 3.09586 10.0134 2.23069Z" fill="#222222"/>
<path d="M10.8448 17.6457C13.9626 13.6325 15.911 11.5398 15.9373 8.02866C15.9703 3.61102 12.3852 0 7.96793 0C3.60218 0 0.0332117 3.53569 2.41699e-05 7.90912C-0.0267883 11.5155 1.95785 13.6053 5.09717 17.6451C1.97412 18.1117 2.41699e-05 19.2844 2.41699e-05 20.7188C2.41699e-05 21.6795 0.888118 22.5417 2.50076 23.1464C3.96856 23.6968 5.91045 24 7.96868 24C10.0269 24 11.9688 23.6968 13.4366 23.1464C15.0492 22.5417 15.9373 21.6795 15.9373 20.7187C15.9373 19.2852 13.9651 18.1128 10.8448 17.6457ZM0.937477 7.9162C0.966727 4.05703 4.11556 0.9375 7.96803 0.9375C11.8661 0.9375 15.0289 4.12444 14.9999 8.02167C14.9749 11.3561 12.9086 13.4109 9.60968 17.7114C9.02126 18.4781 8.48089 19.203 7.96939 19.912C7.45939 19.2025 6.92979 18.4906 6.33256 17.7111C2.89727 13.2306 0.912071 11.331 0.937477 7.9162ZM7.96868 23.0625C3.94442 23.0625 0.937477 21.8251 0.937477 20.7188C0.937477 19.8983 2.73504 18.8617 5.75745 18.5028C6.42556 19.3794 7.01131 20.1758 7.58581 20.9892C7.67356 21.1134 7.81615 21.1874 7.96826 21.1875C7.9684 21.1875 7.96854 21.1875 7.96868 21.1875C8.12065 21.1875 8.2632 21.1138 8.35109 20.9898C8.92015 20.187 9.52193 19.371 10.1843 18.5033C13.2039 18.8626 14.9999 19.8988 14.9999 20.7188C14.9998 21.8251 11.9929 23.0625 7.96868 23.0625Z" fill="#222222"/>
</g>
<defs>
<clipPath id="clip0_53_13521">
<rect width="15.9375" height="24" fill="white"/>
</clipPath>
</defs>
</svg>
