<svg width="16" height="16" viewBox="0 0 16 16" fill="none" xmlns="http://www.w3.org/2000/svg">
<path d="M10.0256 11.6185H11.275V14.1172C11.275 15.1505 10.4343 15.9911 9.401 15.9911H1.8739C0.840698 15.9911 0 15.1505 0 14.1172V1.8739C0 0.840698 0.840698 0 1.8739 0H9.401C10.4343 0 11.275 0.840698 11.275 1.8739V4.37256H10.0256V1.8739C10.0256 1.52954 9.74548 1.24927 9.401 1.24927H1.8739C1.52954 1.24927 1.24927 1.52954 1.24927 1.8739V14.1172C1.24927 14.4615 1.52954 14.7418 1.8739 14.7418H9.401C9.74548 14.7418 10.0256 14.4615 10.0256 14.1172V11.6185ZM13.0553 5.05078L12.1719 5.9342L13.6085 7.37097H5.5282V8.62024H13.6085L12.1719 10.0569L13.0553 10.9403L16 7.99561L13.0553 5.05078Z" fill="#222222"/>
</svg>
