<svg width="22" height="18" viewBox="0 0 22 18" fill="none" xmlns="http://www.w3.org/2000/svg">
<path d="M20.9447 2.89493L5.18756 0.13536C4.49705 0.0134241 3.82623 0.487753 3.70647 1.16206L2.69163 6.87804H1.24194C0.557097 6.87804 0 7.42518 0 8.09739V16.6642C0 17.3364 0.557097 17.8836 1.24194 17.8836H17.3138C17.9987 17.8836 18.5558 17.3364 18.5558 16.6642V13.6519C19.0162 13.7326 19.4606 13.8277 19.8862 13.5777C20.2056 13.3901 20.4346 13.0666 20.4987 12.7062L21.9805 4.35955C22.1024 3.67305 21.6377 3.016 20.9447 2.89493ZM4.40568 1.28173C4.4589 0.982288 4.75484 0.767159 5.06302 0.821159L20.8202 3.58073C21.1294 3.63491 21.3363 3.93051 21.2814 4.23971L21.037 5.61758L4.16048 2.66221L4.40568 1.28173ZM17.8461 16.6642C17.8461 16.9523 17.6073 17.1868 17.3138 17.1868H1.24194C0.948484 17.1868 0.709677 16.9523 0.709677 16.6642V8.09739C0.709677 7.80928 0.948484 7.57481 1.24194 7.57481H17.3138C17.6073 7.57481 17.8461 7.80928 17.8461 8.09739V16.6642ZM19.7996 12.5865C19.6893 13.2061 18.9885 13.0199 18.5558 12.9442V8.09739C18.5558 7.42518 17.9987 6.87804 17.3138 6.87804H3.41213L4.0386 3.34853L5.06656 3.52847L20.9149 6.3039L19.7996 12.5865Z" fill="#222222"/>
<path d="M8.36025 15.794H6.31993C6.12406 15.794 5.96509 15.6379 5.96509 15.4456C5.96509 15.2532 6.12406 15.0972 6.31993 15.0972H8.36025C8.55612 15.0972 8.71509 15.2532 8.71509 15.4456C8.71509 15.6379 8.5563 15.794 8.36025 15.794Z" fill="#222222"/>
<path d="M4.48378 15.794H2.44346C2.24759 15.794 2.08862 15.6379 2.08862 15.4456C2.08862 15.2532 2.24759 15.0972 2.44346 15.0972H4.48378C4.67965 15.0972 4.83862 15.2532 4.83862 15.4456C4.83862 15.6379 4.67965 15.794 4.48378 15.794Z" fill="#222222"/>
<path d="M12.2357 15.794H10.1954C9.99954 15.794 9.84058 15.6379 9.84058 15.4456C9.84058 15.2532 9.99954 15.0972 10.1954 15.0972H12.2357C12.4316 15.0972 12.5906 15.2532 12.5906 15.4456C12.5906 15.6379 12.4318 15.794 12.2357 15.794Z" fill="#222222"/>
<path d="M16.1124 15.794H14.0721C13.8763 15.794 13.7173 15.6379 13.7173 15.4456C13.7173 15.2532 13.8763 15.0972 14.0721 15.0972H16.1124C16.3083 15.0972 16.4673 15.2532 16.4673 15.4456C16.4673 15.6379 16.3083 15.794 16.1124 15.794Z" fill="#222222"/>
<path d="M5.40079 13.9867H2.8307C2.34155 13.9867 1.9436 13.5959 1.9436 13.1157V12.1151C1.9436 11.6349 2.34155 11.2441 2.8307 11.2441H5.40079C5.88994 11.2441 6.28789 11.6349 6.28789 12.1151V13.1157C6.28789 13.5958 5.88976 13.9867 5.40079 13.9867ZM2.8307 11.9407C2.73294 11.9407 2.65328 12.0188 2.65328 12.1149V13.1155C2.65328 13.2117 2.73294 13.2897 2.8307 13.2897H5.40079C5.49855 13.2897 5.57821 13.2117 5.57821 13.1155V12.1149C5.57821 12.0188 5.49855 11.9407 5.40079 11.9407H2.8307Z" fill="#222222"/>
</svg>
