<svg width="17" height="19" viewBox="0 0 17 19" fill="none" xmlns="http://www.w3.org/2000/svg">
<g clip-path="url(#clip0_67_1274)">
<path d="M15.695 3.67886C14.3925 3.33123 13.12 2.87953 11.8899 2.3281C10.6796 1.8031 9.51133 1.18627 8.39517 0.483026L8.07904 0.287598L7.76865 0.488774C6.6525 1.19202 5.48419 1.80885 4.27393 2.33385C3.04175 2.8836 1.76736 3.33339 0.463075 3.67886L0.0319824 3.78807V8.58182C0.0319824 16.2783 7.80889 19.1579 7.88361 19.1867L8.07904 19.2557L8.27447 19.1867C8.35494 19.1867 16.1261 16.284 16.1261 8.58182V3.78807L15.695 3.67886ZM14.9765 8.58182C14.9765 14.9045 9.22862 17.5543 8.07904 18.0256C6.92946 17.5543 1.18156 14.8988 1.18156 8.58182V4.67899C2.39406 4.33042 3.58097 3.89829 4.73376 3.38572C5.88663 2.88737 7.0043 2.31125 8.07904 1.66135C9.15378 2.31125 10.2715 2.88737 11.4243 3.38572C12.5771 3.89829 13.764 4.33042 14.9765 4.67899V8.58182Z" fill="#222222"/>
<path d="M3.98651 9.12202C3.87655 9.02785 3.73511 8.97865 3.59045 8.98423C3.44579 8.98982 3.30856 9.04979 3.20619 9.15216C3.10383 9.25453 3.04386 9.39175 3.03827 9.53641C3.03268 9.68107 3.08189 9.82251 3.17605 9.93247L6.62479 13.3812L12.9072 7.34017C13.017 7.23346 13.0799 7.08752 13.082 6.93445C13.0842 6.78138 13.0255 6.63373 12.9187 6.52397C12.812 6.41421 12.6661 6.35133 12.513 6.34918C12.36 6.34702 12.2123 6.40576 12.1025 6.51247L6.65928 11.7948L3.98651 9.12202Z" fill="#222222"/>
</g>
<defs>
<clipPath id="clip0_67_1274">
<rect width="16.7647" height="19" fill="white"/>
</clipPath>
</defs>
</svg>
