<svg width="14" height="18" viewBox="0 0 14 18" fill="none" xmlns="http://www.w3.org/2000/svg">
<g clip-path="url(#clip0_67_1243)">
<path d="M6.67534 8.4C7.50602 8.4 8.31805 8.15368 9.00874 7.69217C9.69942 7.23067 10.2377 6.57472 10.5556 5.80727C10.8735 5.03982 10.9567 4.19534 10.7946 3.38062C10.6326 2.5659 10.2326 1.81753 9.64519 1.23015C9.05781 0.642773 8.30944 0.242762 7.49472 0.0807037C6.68 -0.0813542 5.83552 0.00181979 5.06807 0.319708C4.30062 0.637596 3.64467 1.17592 3.18317 1.86661C2.72167 2.55729 2.47534 3.36932 2.47534 4.2C2.47534 5.31391 2.91784 6.3822 3.70549 7.16985C4.49315 7.9575 5.56143 8.4 6.67534 8.4ZM6.67534 1.2C7.26869 1.2 7.84871 1.37595 8.34205 1.70559C8.8354 2.03524 9.21992 2.50377 9.44698 3.05195C9.67404 3.60013 9.73345 4.20333 9.6177 4.78527C9.50194 5.36722 9.21622 5.90176 8.79666 6.32132C8.3771 6.74088 7.84256 7.0266 7.26061 7.14236C6.67867 7.25811 6.07547 7.1987 5.52729 6.97164C4.97911 6.74458 4.51058 6.36006 4.18093 5.86671C3.85129 5.37336 3.67534 4.79335 3.67534 4.2C3.67534 3.40435 3.99141 2.64129 4.55402 2.07868C5.11663 1.51607 5.87969 1.2 6.67534 1.2Z" fill="#222222"/>
<path d="M13.2248 13.1444C12.3921 12.1907 11.3887 11.4311 10.2758 10.9119C9.16301 10.3928 7.96416 10.125 6.75258 10.125C5.54101 10.125 4.34216 10.3928 3.22933 10.9119C2.1165 11.4311 1.11307 12.1907 0.280385 13.1444C0.0998556 13.3533 -0.000408588 13.629 1.2515e-06 13.9152V16.8747C1.2515e-06 17.1732 0.10941 17.4594 0.304159 17.6704C0.498908 17.8814 0.763044 18 1.03846 18H12.4615C12.7369 18 13.0011 17.8814 13.1958 17.6704C13.3906 17.4594 13.5 17.1732 13.5 16.8747V13.9152C13.5018 13.6297 13.4034 13.3542 13.2248 13.1444ZM12.4615 16.8747H1.03846V13.9096C1.77433 13.0699 2.66017 12.4013 3.64206 11.9444C4.62396 11.4875 5.68139 11.2519 6.74999 11.2519C7.81859 11.2519 8.87601 11.4875 9.85791 11.9444C10.8398 12.4013 11.7256 13.0699 12.4615 13.9096V16.8747Z" fill="#222222"/>
</g>
<defs>
<clipPath id="clip0_67_1243">
<rect width="13.9091" height="18" fill="white"/>
</clipPath>
</defs>
</svg>
