<svg width="18" height="18" viewBox="0 0 18 18" fill="none" xmlns="http://www.w3.org/2000/svg">
<path d="M17.4727 2.10938H14.7477C14.5027 0.907312 13.4374 0 12.1641 0C10.8907 0 9.8254 0.907312 9.58039 2.10938H0.527344C0.236109 2.10938 0 2.34548 0 2.63672C0 2.92795 0.236109 3.16406 0.527344 3.16406H9.58039C9.82536 4.36613 10.8907 5.27344 12.1641 5.27344C13.4374 5.27344 14.5027 4.36613 14.7477 3.16406H17.4727C17.7639 3.16406 18 2.92795 18 2.63672C18 2.34548 17.7639 2.10938 17.4727 2.10938ZM12.1641 4.21875C11.2919 4.21875 10.5823 3.5093 10.582 2.63718C10.582 2.63704 10.5821 2.63689 10.5821 2.63672C10.5821 2.63654 10.582 2.6364 10.582 2.63626C10.5823 1.76414 11.2919 1.05469 12.1641 1.05469C13.0364 1.05469 13.7461 1.76439 13.7461 2.63672C13.7461 3.50905 13.0364 4.21875 12.1641 4.21875Z" fill="#222222"/>
<path d="M17.4727 8.47266H8.41961C8.17464 7.27059 7.1093 6.36328 5.83594 6.36328C4.56258 6.36328 3.49727 7.27059 3.25227 8.47266H0.527344C0.236109 8.47266 0 8.70877 0 9C0 9.29123 0.236109 9.52734 0.527344 9.52734H3.25227C3.49724 10.7294 4.56258 11.6367 5.83594 11.6367C7.1093 11.6367 8.1746 10.7294 8.41961 9.52734H17.4727C17.7639 9.52734 18 9.29123 18 9C18 8.70877 17.7639 8.47266 17.4727 8.47266ZM5.83594 10.582C4.96375 10.582 4.25415 9.87258 4.25391 9.00046C4.25391 9.00032 4.25394 9.00018 4.25394 9C4.25394 8.99982 4.25391 8.99968 4.25391 8.99954C4.25415 8.12742 4.96375 7.41797 5.83594 7.41797C6.70827 7.41797 7.41797 8.12767 7.41797 9C7.41797 9.87233 6.70827 10.582 5.83594 10.582Z" fill="#222222"/>
<path d="M17.4727 14.8359H14.7477C14.5028 13.6339 13.4374 12.7266 12.1641 12.7266C10.8907 12.7266 9.8254 13.6339 9.58039 14.8359H0.527344C0.236109 14.8359 0 15.072 0 15.3633C0 15.6545 0.236109 15.8906 0.527344 15.8906H9.58039C9.82536 17.0927 10.8907 18 12.1641 18C13.4374 18 14.5027 17.0927 14.7477 15.8906H17.4727C17.7639 15.8906 18 15.6545 18 15.3633C18 15.072 17.7639 14.8359 17.4727 14.8359ZM12.1641 16.9453C11.2919 16.9453 10.5823 16.2359 10.582 15.3637C10.582 15.3636 10.5821 15.3635 10.5821 15.3633C10.5821 15.3631 10.582 15.363 10.582 15.3628C10.5823 14.4907 11.2919 13.7812 12.1641 13.7812C13.0364 13.7812 13.7461 14.4909 13.7461 15.3633C13.7461 16.2356 13.0364 16.9453 12.1641 16.9453Z" fill="#222222"/>
</svg>
