<svg width="22" height="18" viewBox="0 0 22 18" fill="none" xmlns="http://www.w3.org/2000/svg">
<path d="M5.36246 2.78418H3.42581C3.15819 2.78418 2.94165 3.00072 2.94165 3.26834V5.20499C2.94165 5.47261 3.15819 5.68915 3.42581 5.68915H5.36246C5.63008 5.68915 5.84662 5.47261 5.84662 5.20499V3.26834C5.84662 3.00072 5.63008 2.78418 5.36246 2.78418ZM4.8783 4.72083H3.90997V3.7525H4.8783V4.72083Z" fill="#222222"/>
<path d="M10.6889 2.78369H8.75223C8.48461 2.78369 8.26807 3.00023 8.26807 3.26785V5.2045C8.26807 5.47212 8.48461 5.68866 8.75223 5.68866H10.6889C10.9565 5.68866 11.173 5.47212 11.173 5.2045V3.26785C11.173 3.00023 10.9565 2.78369 10.6889 2.78369ZM10.2047 4.72034H9.23639V3.75201H10.2047V4.72034Z" fill="#222222"/>
<path d="M5.36246 8.10938H3.42581C3.15819 8.10938 2.94165 8.32592 2.94165 8.59354V10.5302C2.94165 10.7978 3.15819 11.0143 3.42581 11.0143H5.36246C5.63008 11.0143 5.84662 10.7978 5.84662 10.5302V8.59354C5.84662 8.32592 5.63008 8.10938 5.36246 8.10938ZM4.8783 10.046H3.90997V9.0777H4.8783V10.046Z" fill="#222222"/>
<path d="M10.6889 8.10938H8.75223C8.48461 8.10938 8.26807 8.32592 8.26807 8.59354V10.5302C8.26807 10.7978 8.48461 11.0143 8.75223 11.0143H10.6889C10.9565 11.0143 11.173 10.7978 11.173 10.5302V8.59354C11.173 8.32592 10.9565 8.10938 10.6889 8.10938ZM10.2047 10.046H9.23639V9.0777H10.2047V10.046Z" fill="#222222"/>
<path d="M10.2039 7.14117V6.65701C10.2039 6.38939 9.98738 6.17285 9.71976 6.17285C9.45214 6.17285 9.2356 6.38939 9.2356 6.65701V7.14117C9.2356 7.40879 9.45214 7.62534 9.71976 7.62534C9.98738 7.62534 10.2039 7.40879 10.2039 7.14117Z" fill="#222222"/>
<path d="M7.30084 9.07764H6.81668C6.54906 9.07764 6.33252 9.29418 6.33252 9.5618C6.33252 9.82942 6.54906 10.046 6.81668 10.046H7.30084C7.56846 10.046 7.785 9.82942 7.785 9.5618C7.785 9.29418 7.56846 9.07764 7.30084 9.07764Z" fill="#222222"/>
<path d="M7.30084 3.75195H6.81668C6.54906 3.75195 6.33252 3.96849 6.33252 4.23611C6.33252 4.50373 6.54906 4.72028 6.81668 4.72028H7.30084C7.56846 4.72028 7.785 4.50373 7.785 4.23611C7.785 3.96849 7.56846 3.75195 7.30084 3.75195Z" fill="#222222"/>
<path d="M4.87848 7.14117V6.65701C4.87848 6.38939 4.66194 6.17285 4.39432 6.17285C4.1267 6.17285 3.91016 6.38939 3.91016 6.65701V7.14117C3.91016 7.40879 4.1267 7.62534 4.39432 7.62534C4.66194 7.62534 4.87848 7.40879 4.87848 7.14117Z" fill="#222222"/>
<path d="M21.618 9.34479L20.0873 7.10205C19.6782 6.50256 19.0005 6.14464 18.2747 6.14464H15.3067C15.0643 6.14464 14.8678 6.34116 14.8678 6.58354C14.8678 6.82593 15.0643 7.02244 15.3067 7.02244H15.9102V8.94264C15.9102 9.9107 16.6978 10.6983 17.6658 10.6983H18.9825C19.2249 10.6983 19.4214 10.5017 19.4214 10.2594C19.4214 10.017 19.2249 9.82045 18.9825 9.82045H17.6658C17.1818 9.82045 16.788 9.42664 16.788 8.94264V7.02244H18.2747C18.7102 7.02244 19.1168 7.23718 19.3622 7.59691L20.893 9.8396C21.0429 10.0593 21.1222 10.316 21.1222 10.5819V14.4838H20.4815C20.2718 13.24 19.1878 12.2893 17.8853 12.2893C16.4332 12.2893 15.2519 13.4706 15.2519 14.9227C15.2519 16.3747 16.4332 17.5561 17.8853 17.5561C19.1878 17.5561 20.2718 16.6054 20.4815 15.3616H21.5611C21.8035 15.3616 22 15.1651 22 14.9227V10.5819C22 10.1388 21.8679 9.71094 21.618 9.34479ZM17.8853 16.6783C16.9172 16.6783 16.1297 15.8907 16.1297 14.9227C16.1297 13.9546 16.9172 13.1671 17.8853 13.1671C18.8533 13.1671 19.6409 13.9546 19.6409 14.9227C19.6409 15.8907 18.8533 16.6783 17.8853 16.6783ZM12.7282 14.4838H7.31437C7.10474 13.24 6.02076 12.2893 4.7182 12.2893C3.26609 12.2893 2.08479 13.4706 2.08479 14.9227C2.08479 16.3747 3.26609 17.5561 4.7182 17.5561C6.0207 17.5561 7.10474 16.6054 7.31437 15.3616H12.7282C12.9706 15.3616 13.1671 15.1651 13.1671 14.9227C13.1671 14.6803 12.9706 14.4838 12.7282 14.4838ZM4.7182 16.6783C3.75015 16.6783 2.96259 15.8907 2.96259 14.9227C2.96259 13.9546 3.75015 13.1671 4.7182 13.1671C5.68626 13.1671 6.47381 13.9546 6.47381 14.9227C6.47381 15.8907 5.68626 16.6783 4.7182 16.6783Z" fill="#222222"/>
<path d="M14.1115 12.6185V1.75561C14.1115 0.787556 13.3239 0 12.3559 0H1.76733C0.799275 0 0.0117188 0.787556 0.0117188 1.75561V2.3591H0.889524V1.75561C0.889524 1.27161 1.28333 0.877805 1.76733 0.877805H12.3559C12.8399 0.877805 13.2337 1.27161 13.2337 1.75561V12.6185C13.2337 12.8608 13.4302 13.0574 13.6726 13.0574C13.915 13.0574 14.1115 12.8608 14.1115 12.6185Z" fill="#222222"/>
</svg>
