<svg width="20" height="20" viewBox="0 0 20 20" fill="none" xmlns="http://www.w3.org/2000/svg">
<g clip-path="url(#clip0_54_17895)">
<path d="M1.8166 6.66665H5.83326C6.05428 6.66665 6.26624 6.57886 6.42252 6.42258C6.5788 6.2663 6.6666 6.05433 6.6666 5.83332C6.6666 5.61231 6.5788 5.40034 6.42252 5.24406C6.26624 5.08778 6.05428 4.99999 5.83326 4.99999H3.33326C4.50127 3.44336 6.17725 2.34461 8.07055 1.89429C9.96384 1.44398 11.955 1.6705 13.6988 2.53456C15.4426 3.39863 16.8289 4.84575 17.6175 6.62495C18.406 8.40416 18.5469 10.4032 18.0159 12.2755C17.4848 14.1477 16.3153 15.7751 14.71 16.8753C13.1047 17.9755 11.165 18.4792 9.22727 18.299C7.28952 18.1188 5.47594 17.2661 4.10105 15.8888C2.72616 14.5115 1.87668 12.6964 1.69993 10.7583C1.69466 10.646 1.6667 10.5359 1.61773 10.4346C1.56877 10.3333 1.49981 10.243 1.41502 10.1691C1.33023 10.0953 1.23136 10.0393 1.12436 10.0046C1.01737 9.96995 0.904458 9.9573 0.792442 9.96744C0.680427 9.97757 0.571622 10.0103 0.472582 10.0636C0.373541 10.1169 0.286316 10.1897 0.216161 10.2776C0.146006 10.3655 0.0943727 10.4667 0.064372 10.5751C0.0343713 10.6835 0.0266241 10.7968 0.0415971 10.9083C0.251188 13.2001 1.24481 15.3494 2.85484 16.9937C4.46488 18.6381 6.59278 19.6768 8.87961 19.9346C11.1664 20.1925 13.4722 19.6537 15.408 18.4091C17.3437 17.1646 18.791 15.2905 19.5056 13.103C20.2203 10.9154 20.1586 8.54833 19.3309 6.40101C18.5032 4.25369 16.9602 2.45756 14.9622 1.3156C12.9642 0.173647 10.6335 -0.244237 8.36324 0.132442C6.09296 0.509121 4.02208 1.65731 2.49993 3.38332V1.66665C2.49993 1.44564 2.41213 1.23368 2.25585 1.0774C2.09957 0.921118 1.88761 0.83332 1.6666 0.83332C1.44558 0.83332 1.23362 0.921118 1.07734 1.0774C0.921061 1.23368 0.833264 1.44564 0.833264 1.66665V5.83332C0.833264 6.05433 0.921061 6.2663 1.07734 6.42258C1.23362 6.57886 1.44558 6.66665 1.6666 6.66665H1.8166ZM9.1666 4.99999C9.38761 4.99999 9.59957 5.08778 9.75585 5.24406C9.91213 5.40034 9.99993 5.61231 9.99993 5.83332V9.99999H12.4999C12.7209 9.99999 12.9329 10.0878 13.0892 10.2441C13.2455 10.4003 13.3333 10.6123 13.3333 10.8333C13.3333 11.0543 13.2455 11.2663 13.0892 11.4226C12.9329 11.5789 12.7209 11.6667 12.4999 11.6667H9.1666C8.94558 11.6667 8.73362 11.5789 8.57734 11.4226C8.42106 11.2663 8.33326 11.0543 8.33326 10.8333V5.83332C8.33326 5.61231 8.42106 5.40034 8.57734 5.24406C8.73362 5.08778 8.94558 4.99999 9.1666 4.99999Z" fill="#555555"/>
</g>
<defs>
<clipPath id="clip0_54_17895">
<rect width="20" height="20" fill="white"/>
</clipPath>
</defs>
</svg>
