<svg width="20" height="15" viewBox="0 0 20 15" fill="none" xmlns="http://www.w3.org/2000/svg">
<path d="M18.75 0H1.25C0.918479 0 0.600537 0.131696 0.366116 0.366116C0.131696 0.600537 0 0.918479 0 1.25V13.75C0 14.0815 0.131696 14.3995 0.366116 14.6339C0.600537 14.8683 0.918479 15 1.25 15H18.75C19.0815 15 19.3995 14.8683 19.6339 14.6339C19.8683 14.3995 20 14.0815 20 13.75V1.25C20 0.918479 19.8683 0.600537 19.6339 0.366116C19.3995 0.131696 19.0815 0 18.75 0ZM17.7875 13.75H2.2875L6.6625 9.225L5.7625 8.35625L1.25 13.025V2.2L9.01875 9.93125C9.25295 10.1641 9.56977 10.2947 9.9 10.2947C10.2302 10.2947 10.547 10.1641 10.7812 9.93125L18.75 2.00625V12.9437L14.15 8.34375L13.2687 9.225L17.7875 13.75ZM2.06875 1.25H17.7375L9.9 9.04375L2.06875 1.25Z" fill="#555555"/>
</svg>
