<svg width="22" height="17" viewBox="0 0 22 17" fill="none" xmlns="http://www.w3.org/2000/svg">
<g clip-path="url(#clip0_54_17889)">
<path d="M15.8125 12.375C15.6302 12.375 15.4553 12.4474 15.3264 12.5764C15.1974 12.7053 15.125 12.8802 15.125 13.0625C15.125 13.2448 15.1974 13.4197 15.3264 13.5486C15.4553 13.6776 15.6302 13.75 15.8125 13.75H18.5625C18.7448 13.75 18.9197 13.6776 19.0486 13.5486C19.1776 13.4197 19.25 13.2448 19.25 13.0625C19.25 12.8802 19.1776 12.7053 19.0486 12.5764C18.9197 12.4474 18.7448 12.375 18.5625 12.375H15.8125Z" fill="#555555"/>
<path d="M0 3.4375C0 2.52582 0.362164 1.65148 1.00682 1.00682C1.65148 0.362164 2.52582 0 3.4375 0H18.5625C19.4742 0 20.3485 0.362164 20.9932 1.00682C21.6378 1.65148 22 2.52582 22 3.4375V13.0625C22 13.9742 21.6378 14.8485 20.9932 15.4932C20.3485 16.1378 19.4742 16.5 18.5625 16.5H3.4375C2.52582 16.5 1.65148 16.1378 1.00682 15.4932C0.362164 14.8485 0 13.9742 0 13.0625V3.4375ZM1.375 13.0625C1.375 13.6095 1.5923 14.1341 1.97909 14.5209C2.36589 14.9077 2.89049 15.125 3.4375 15.125H18.5625C19.1095 15.125 19.6341 14.9077 20.0209 14.5209C20.4077 14.1341 20.625 13.6095 20.625 13.0625V6.875H1.375V13.0625ZM20.625 3.4375C20.625 2.89049 20.4077 2.36589 20.0209 1.97909C19.6341 1.5923 19.1095 1.375 18.5625 1.375H3.4375C2.89049 1.375 2.36589 1.5923 1.97909 1.97909C1.5923 2.36589 1.375 2.89049 1.375 3.4375V5.5H20.625V3.4375Z" fill="#555555"/>
</g>
<defs>
<clipPath id="clip0_54_17889">
<rect width="22" height="16.5" fill="white"/>
</clipPath>
</defs>
</svg>
