<svg width="17" height="16" viewBox="0 0 17 16" fill="none" xmlns="http://www.w3.org/2000/svg">
<path d="M12.6158 0.5C13.7333 0.5 14.8083 0.941667 15.5991 1.73417C16.3908 2.525 16.8333 3.59167 16.8333 4.70833V11.2917C16.8333 13.6167 14.9416 15.5 12.6158 15.5H4.38329C2.05746 15.5 0.166626 13.6167 0.166626 11.2917V4.70833C0.166626 2.38333 2.04913 0.5 4.38329 0.5H12.6158ZM13.5583 4.83333C13.3833 4.82417 13.2166 4.88333 13.0908 5L9.33329 8C8.84996 8.40083 8.15746 8.40083 7.66663 8L3.91663 5C3.65746 4.80833 3.29913 4.83333 3.08329 5.05833C2.85829 5.28333 2.83329 5.64167 3.02413 5.89167L3.13329 6L6.92496 8.95833C7.39163 9.325 7.95746 9.525 8.54996 9.525C9.14079 9.525 9.71663 9.325 10.1825 8.95833L13.9416 5.95L14.0083 5.88333C14.2075 5.64167 14.2075 5.29167 13.9991 5.05C13.8833 4.92583 13.7241 4.85 13.5583 4.83333Z" fill="white"/>
</svg>
