<svg width="26" height="26" viewBox="0 0 26 26" fill="none" xmlns="http://www.w3.org/2000/svg">
<path d="M13 8.33332C10.4216 8.33332 8.33329 10.4217 8.33329 13C8.33329 15.5783 10.4216 17.6667 13 17.6667C15.5783 17.6667 17.6666 15.5783 17.6666 13C17.6666 10.4217 15.5783 8.33332 13 8.33332ZM23.43 11.8333C22.8933 6.96832 19.0316 3.10666 14.1666 2.56999V0.166656H11.8333V2.56999C6.96829 3.10666 3.10663 6.96832 2.56996 11.8333H0.166626V14.1667H2.56996C3.10663 19.0317 6.96829 22.8933 11.8333 23.43V25.8333H14.1666V23.43C19.0316 22.8933 22.8933 19.0317 23.43 14.1667H25.8333V11.8333H23.43ZM13 21.1667C8.48496 21.1667 4.83329 17.515 4.83329 13C4.83329 8.48499 8.48496 4.83332 13 4.83332C17.515 4.83332 21.1666 8.48499 21.1666 13C21.1666 17.515 17.515 21.1667 13 21.1667Z" fill="#090909"/>
</svg>
