<svg width="21" height="27" viewBox="0 0 21 27" fill="none" xmlns="http://www.w3.org/2000/svg">
<path d="M10.8966 26.6851C12.2621 26.6851 13.3794 25.4707 13.3794 23.9865H8.41385C8.41385 25.4707 9.53109 26.6851 10.8966 26.6851ZM18.3449 18.5892V11.8426C18.3449 7.70013 16.3214 4.23236 12.7587 3.31482V2.39728C12.7587 1.27734 11.927 0.373291 10.8966 0.373291C9.86627 0.373291 9.03454 1.27734 9.03454 2.39728V3.31482C5.4842 4.23236 3.44833 7.68663 3.44833 11.8426V18.5892L0.965576 21.2878V22.6372H20.8276V21.2878L18.3449 18.5892ZM15.8621 19.9385H5.93109V11.8426C5.93109 8.49623 7.80558 5.77059 10.8966 5.77059C13.9876 5.77059 15.8621 8.49623 15.8621 11.8426V19.9385Z" fill="black" fill-opacity="0.87"/>
</svg>
