<svg width="263" height="231" viewBox="0 0 263 231" fill="none" xmlns="http://www.w3.org/2000/svg">
<path fill-rule="evenodd" clip-rule="evenodd" d="M238.031 126.108C238.031 183.429 191.562 229.898 134.241 229.898C76.9203 229.898 30.4523 183.429 30.4523 126.108C30.4523 68.7874 76.9203 22.3184 134.241 22.3184C191.562 22.3184 238.031 68.7874 238.031 126.108Z" stroke="#E9EAEC" stroke-dasharray="5.02 5.02"/>
<path fill-rule="evenodd" clip-rule="evenodd" d="M211.316 126.108C211.316 168.675 176.808 203.183 134.241 203.183C91.6735 203.183 57.1675 168.675 57.1675 126.108C57.1675 83.5414 91.6735 49.0334 134.241 49.0334C176.808 49.0334 211.316 83.5414 211.316 126.108Z" stroke="#E9EAEC" stroke-dasharray="5.05 5.05"/>
<path d="M10.8448 140.082L8.91779 140.023" stroke="#D2D8DF" stroke-linecap="round"/>
<path d="M9.46238 136.429L8.08038 137.72" stroke="#D2D8DF" stroke-linecap="round"/>
<path d="M5.86042 134.76L5.83142 136.644" stroke="#D2D8DF" stroke-linecap="round"/>
<path d="M2.14801 136.054L3.49001 137.428" stroke="#D2D8DF" stroke-linecap="round"/>
<path d="M0.5 139.552L2.426 139.611" stroke="#D2D8DF" stroke-linecap="round"/>
<path d="M1.8819 143.206L3.2649 141.915" stroke="#D2D8DF" stroke-linecap="round"/>
<path d="M5.48438 144.875L5.51337 142.991" stroke="#D2D8DF" stroke-linecap="round"/>
<path d="M9.1968 143.581L7.8548 142.207" stroke="#D2D8DF" stroke-linecap="round"/>
<path d="M262.148 113.222L261.301 114.139" stroke="#D2D8DF" stroke-linecap="round"/>
<path d="M258.171 114.019L258.81 114.608" stroke="#D2D8DF" stroke-linecap="round"/>
<path d="M257.526 118.084L258.373 117.167" stroke="#D2D8DF" stroke-linecap="round"/>
<path d="M261.502 117.287L260.864 116.698" stroke="#D2D8DF" stroke-linecap="round"/>
<path d="M184.57 5.44685L182.521 5.39185" stroke="#D2D8DF" stroke-linecap="round"/>
<path d="M179.269 0.5L179.238 2.251" stroke="#D2D8DF" stroke-linecap="round"/>
<path d="M173.566 4.9541L175.615 5.0081" stroke="#D2D8DF" stroke-linecap="round"/>
<path d="M178.868 9.9009L178.899 8.1499" stroke="#D2D8DF" stroke-linecap="round"/>
<path fill-rule="evenodd" clip-rule="evenodd" d="M34.837 194.784C32.6344 195.457 28.9658 198.763 27.7106 202.681C27.4999 199.04 25.236 194.464 22.745 193.804C25.7844 192.707 29.0764 188.674 29.9521 185.275C29.7937 188.837 32.9601 194.009 34.837 194.784Z" fill="#00A0E3"/>
<path fill-rule="evenodd" clip-rule="evenodd" d="M67.3594 14.8256C66.2224 15.0266 64.2074 16.4266 63.3594 18.2666C63.4604 16.4776 62.5914 14.1126 61.3874 13.6466C62.9644 13.2866 64.8344 11.5086 65.4634 9.90063C65.1824 11.6306 66.4674 14.3386 67.3594 14.8256Z" fill="#00A0E3"/>
<path fill-rule="evenodd" clip-rule="evenodd" d="M218.06 27.817C216.541 27.784 215.337 26.527 215.371 25.009C215.404 23.491 216.661 22.287 218.178 22.32C219.697 22.353 220.901 23.61 220.868 25.128C220.834 26.646 219.578 27.85 218.06 27.817Z" fill="#FF0000"/>
<path fill-rule="evenodd" clip-rule="evenodd" d="M218.066 207.969C216.745 207.941 215.697 206.846 215.725 205.525C215.753 204.203 216.848 203.155 218.17 203.183C219.492 203.212 220.54 204.306 220.511 205.628C220.482 206.949 219.388 207.998 218.066 207.969Z" fill="#EBECEF"/>
<path fill-rule="evenodd" clip-rule="evenodd" d="M19.3223 64.3034C18.5043 64.2854 17.8553 63.6084 17.8733 62.7894C17.8903 61.9714 18.5683 61.3234 19.3863 61.3404C20.2043 61.3584 20.8533 62.0354 20.8363 62.8534C20.8183 63.6724 20.1403 64.3214 19.3223 64.3034Z" stroke="#D2D8DF" stroke-linecap="round"/>
<path fill-rule="evenodd" clip-rule="evenodd" d="M178.899 58.5674C178.899 63.8324 174.63 68.1004 169.366 68.1004C164.1 68.1004 159.833 63.8324 159.833 58.5674C159.833 53.3024 164.1 49.0334 169.366 49.0334C174.63 49.0334 178.899 53.3024 178.899 58.5674Z" fill="white"/>
<path fill-rule="evenodd" clip-rule="evenodd" d="M73.3975 184.555L59.1955 96.8887C58.9845 95.5907 59.5815 94.2947 60.7035 93.6107L98.2145 70.7137C98.9525 70.2637 99.8385 70.1267 100.676 70.3337L146.947 81.7777C147.814 81.9917 148.731 81.8377 149.481 81.3527L180.435 61.3237C182.255 60.1457 184.697 61.0567 185.299 63.1397L211.343 153.062C211.724 154.379 211.234 155.793 210.121 156.592L181.623 177.015C180.85 177.568 179.875 177.754 178.954 177.524L124.749 163.973C123.991 163.784 123.189 163.875 122.494 164.23L78.0625 186.919C76.1085 187.916 73.7495 186.721 73.3975 184.555Z" fill="#F1F2F7"/>
<path fill-rule="evenodd" clip-rule="evenodd" d="M169.484 65.9839C164.976 65.9839 161.322 62.3289 161.322 57.8209C161.322 53.3129 164.976 49.6579 169.484 49.6579C173.993 49.6579 177.647 53.3129 177.647 57.8209C177.647 62.3289 173.993 65.9839 169.484 65.9839ZM169.484 40.5879C160.231 40.3259 152.517 47.6149 152.255 56.8679C152.248 57.1309 152.247 57.3949 152.252 57.6579C152.252 71.9519 168.214 85.1759 168.886 85.7199C169.225 86.0109 169.725 86.0109 170.065 85.7199C170.772 85.0859 186.717 70.5369 186.717 57.6579C186.891 48.4019 179.53 40.7579 170.274 40.5849C170.011 40.5799 169.748 40.5809 169.484 40.5879Z" fill="#4285F4"/>
<path d="M105.198 144.774L132.826 151.982C135.733 152.74 138.02 149.481 136.312 147.01C126.775 133.218 108.925 104.633 125.72 105.833C147.822 107.412 143.612 127.372 148.348 130.022C153.085 132.671 181.501 126.753 182.553 116.294C183.606 105.833 179.923 100.571 172.555 97.4145C165.188 94.2565 168.886 85.7205 168.886 85.7205" stroke="#0E1D25" stroke-width="2" stroke-dasharray="7"/>
<path fill-rule="evenodd" clip-rule="evenodd" d="M69.8653 108.53L67.9743 101.177C67.5563 99.5528 68.2763 97.8498 69.7333 97.0168L92.7793 83.8478C92.9613 83.7438 93.1503 83.6558 93.3463 83.5838L100.985 80.7888C101.646 80.5468 102.363 80.4968 103.052 80.6458L119.814 84.2728C121.157 84.5628 122.23 85.5688 122.607 86.8888C123.326 89.4048 121.295 91.8568 118.69 91.6198L111.316 90.9498C108.957 90.7348 107 92.7488 107.282 95.1008L107.961 100.76C108.167 102.476 107.165 104.108 105.542 104.701L90.0483 110.36C88.9563 110.758 87.7423 110.624 86.7633 109.998L82.5143 107.28C80.7793 106.169 78.4723 106.679 77.3663 108.417L76.6123 109.602C74.8633 112.35 70.6773 111.685 69.8653 108.53Z" fill="#D8DBEA"/>
<path fill-rule="evenodd" clip-rule="evenodd" d="M171.725 141.807L177.015 164.48C177.623 167.086 180.702 168.219 182.854 166.628L200.467 153.609C201.699 152.7 202.247 151.129 201.85 149.65L197.718 134.25C197.172 132.214 195.047 131.037 193.033 131.654L174.261 137.401C172.388 137.974 171.28 139.9 171.725 141.807Z" fill="#D8DBEA"/>
<path fill-rule="evenodd" clip-rule="evenodd" d="M149.993 149.316L162.074 150.09C163.656 150.192 165.001 151.284 165.424 152.813L167.772 161.295C168.528 164.024 166.082 166.564 163.326 165.911L151.368 163.079C150.172 162.796 149.192 161.94 148.751 160.793L146.28 154.368C145.306 151.834 147.284 149.143 149.993 149.316Z" fill="#D8DBEA"/>
<path fill-rule="evenodd" clip-rule="evenodd" d="M94.0801 143.795C89.1991 143.795 85.2421 139.838 85.2421 134.958C85.2421 130.077 89.1991 126.12 94.0801 126.12C98.9611 126.12 102.917 130.077 102.917 134.958C102.917 139.838 98.9611 143.795 94.0801 143.795ZM94.0801 116.301C84.0611 116.017 75.7111 123.908 75.4271 133.926C75.4191 134.211 75.4181 134.496 75.4231 134.781C75.4231 150.256 92.7051 164.573 93.4321 165.162C93.7991 165.477 94.3411 165.477 94.7081 165.162C95.4751 164.475 112.736 148.725 112.736 134.781C112.925 124.761 104.955 116.485 94.9341 116.297C94.6491 116.292 94.3641 116.293 94.0801 116.301Z" fill="#FF0000"/>
</svg>
