<svg width="253" height="249" viewBox="0 0 253 249" fill="none" xmlns="http://www.w3.org/2000/svg">
<mask id="mask0_417_1268" style="mask-type:luminance" maskUnits="userSpaceOnUse" x="0" y="0" width="253" height="249">
<path fill-rule="evenodd" clip-rule="evenodd" d="M0.665039 0H252.335V248.906H0.665039V0Z" fill="white"/>
</mask>
<g mask="url(#mask0_417_1268)">
<path fill-rule="evenodd" clip-rule="evenodd" d="M8.46547 128.445C31.1135 74.7957 13.6309 7.64942 87.9875 7.8979C147.733 8.09765 176.254 22.2067 218.17 45.6204C258.733 68.2792 259.881 133.106 202.863 191.536C145.844 249.966 103.08 248.297 82.1173 234.942C61.1557 221.585 -7.71769 166.784 8.46547 128.445Z" fill="#F4F5F7"/>
</g>
<path fill-rule="evenodd" clip-rule="evenodd" d="M166.668 49.2058C198.933 29.2494 209.639 12.7249 216.172 24.0661C220.593 31.7433 175.631 86.5227 166.668 92.3553C163.98 64.6258 166.668 49.2058 166.668 49.2058Z" fill="white"/>
<path fill-rule="evenodd" clip-rule="evenodd" d="M166.668 49.2058C198.933 29.2494 209.639 12.7249 216.172 24.0661C220.593 31.7433 175.631 86.5227 166.668 92.3553C163.98 64.6258 166.668 49.2058 166.668 49.2058Z" stroke="#0A0F37" stroke-width="2"/>
<path fill-rule="evenodd" clip-rule="evenodd" d="M77.2356 132.919C80.1208 68.8873 80.1208 35.9304 82.0431 23.6889C83.9666 11.4488 89.737 5.79897 110.893 4.85713C132.049 3.91529 150.319 0.147919 163.781 0.147919C177.244 0.147919 188.784 -1.7345 188.784 34.0479C188.784 69.8291 181.643 194.58 181.643 203.055C181.643 211.53 183.561 232.813 160.482 232.813C137.403 232.813 116.48 232.482 98.9645 235.003C82.7544 237.337 77.2356 228.965 77.2356 205.424V132.919Z" fill="#0A1236"/>
<path fill-rule="evenodd" clip-rule="evenodd" d="M76.7526 128.045C79.4422 66.364 79.4422 34.6162 81.2336 22.8249C83.0263 11.0323 88.4044 5.59055 108.121 4.68275C127.838 3.77621 144.867 0.147532 157.416 0.147532C169.963 0.147532 180.718 -1.66555 180.718 32.8018C180.718 67.2718 173.547 203.332 173.547 211.497C173.547 219.66 173.547 226.916 152.038 226.916C130.528 226.916 112.561 225.837 97.3254 226.743C82.0882 227.65 76.7526 220.568 76.7526 197.89V128.045Z" fill="#4285F4"/>
<path fill-rule="evenodd" clip-rule="evenodd" d="M88.8521 31.0172L174.891 25.5754L166.826 197.012L82.5784 201.547L88.8521 31.0172Z" fill="white"/>
<path fill-rule="evenodd" clip-rule="evenodd" d="M131.055 213.245C131.055 217.318 127.793 220.621 123.768 220.621C119.743 220.621 116.481 217.318 116.481 213.245C116.481 209.172 119.743 205.868 123.768 205.868C127.793 205.868 131.055 209.172 131.055 213.245Z" fill="white"/>
<path fill-rule="evenodd" clip-rule="evenodd" d="M88.7889 31.3962L82.4771 200.462L167.235 195.966L175.349 26.0012L88.7889 31.3962Z" fill="white"/>
<mask id="mask1_417_1268" style="mask-type:luminance" maskUnits="userSpaceOnUse" x="82" y="26" width="94" height="175">
<path fill-rule="evenodd" clip-rule="evenodd" d="M88.7889 31.3962L82.4771 200.462L167.235 195.966L175.349 26.0012L88.7889 31.3962Z" fill="white"/>
</mask>
<g mask="url(#mask1_417_1268)">
</g>
<path fill-rule="evenodd" clip-rule="evenodd" d="M40.8236 224.163C53.6596 214.178 76.2449 189 68.9433 150.606C61.6405 112.209 56.1148 108.085 65.3803 93.8332C74.6457 79.5801 83.9362 58.0844 91.3406 72.9361C98.7437 87.7878 91.6426 114.557 80.1476 118.107C89.8592 127.359 127.164 160.57 102.11 192.862C85.9678 210.925 69.3243 207.122 64.993 241.625C63.0228 240.345 40.8236 224.163 40.8236 224.163Z" fill="white"/>
<path d="M40.8236 224.163C53.6596 214.178 76.2449 189 68.9433 150.606C61.6405 112.209 56.1148 108.085 65.3803 93.8332C74.6457 79.5801 83.9362 58.0844 91.3406 72.9361C98.7437 87.7878 91.6426 114.557 80.1476 118.107C89.8592 127.359 127.164 160.57 102.11 192.862C85.9678 210.925 70.8997 205.251 64.993 241.625" stroke="#0A0F37" stroke-width="2"/>
<path fill-rule="evenodd" clip-rule="evenodd" d="M186.544 93.1479C178.022 102.565 156.296 117.672 146.258 124.444C135.59 131.643 140.57 139.756 164.658 131.475C178.444 126.734 188.017 120.865 190.938 114.344C195.807 103.473 186.544 93.1479 186.544 93.1479Z" fill="white"/>
<path fill-rule="evenodd" clip-rule="evenodd" d="M186.544 93.1479C178.022 102.565 156.296 117.672 146.258 124.444C135.59 131.643 140.57 139.756 164.658 131.475C178.444 126.734 188.017 120.865 190.938 114.344C195.807 103.473 186.544 93.1479 186.544 93.1479Z" stroke="#0A0F37" stroke-width="2"/>
<path fill-rule="evenodd" clip-rule="evenodd" d="M185.29 121.127C177.049 127.601 159.347 134.968 147.463 134.961C140.622 138.506 135.809 147.49 148.45 146.89C161.089 146.288 183.97 146.684 189.454 129.411C192.976 118.321 190.83 114.621 190.34 115.504C189.137 117.672 187.32 119.532 185.29 121.127Z" fill="white"/>
<path fill-rule="evenodd" clip-rule="evenodd" d="M185.29 121.127C177.049 127.601 159.347 134.968 147.463 134.961C140.622 138.506 135.809 147.49 148.45 146.89C161.089 146.288 183.97 146.684 189.454 129.411C192.976 118.321 190.83 114.621 190.34 115.504C189.137 117.672 187.32 119.532 185.29 121.127Z" stroke="#0A0F37" stroke-width="2"/>
<path fill-rule="evenodd" clip-rule="evenodd" d="M153.631 146.696C170.667 146.707 181.305 141.59 185.415 136.628C190.495 137.93 188.784 152.717 171.03 153.972C151.95 155.32 153.631 146.696 153.631 146.696Z" fill="white"/>
<path fill-rule="evenodd" clip-rule="evenodd" d="M153.631 146.696C170.667 146.707 181.305 141.59 185.415 136.628C190.495 137.93 188.784 152.717 171.03 153.972C151.95 155.32 153.631 146.696 153.631 146.696Z" stroke="#0A0F37" stroke-width="2"/>
<path fill-rule="evenodd" clip-rule="evenodd" d="M148.779 75.9487C148.779 86.7266 140.054 95.464 129.291 95.464C118.528 95.464 109.803 86.7266 109.803 75.9487C109.803 65.1707 118.528 56.4333 129.291 56.4333C140.054 56.4333 148.779 65.1707 148.779 75.9487Z" fill="#4285F4"/>
<path fill-rule="evenodd" clip-rule="evenodd" d="M143.53 75.9487C143.53 86.7266 140.055 95.464 129.292 95.464C118.529 95.464 109.803 86.7266 109.803 75.9487C109.803 65.1707 118.529 56.4333 129.292 56.4333C140.055 56.4333 143.53 65.1707 143.53 75.9487Z" fill="#4285F4"/>
<path d="M139.209 65.3752L142.143 67.9675L128.116 84.1582L116.847 75.2945L119.242 72.1887L127.607 78.7682L139.209 65.3752Z" fill="white"/>
</svg>
