<svg width="17" height="17" viewBox="0 0 17 17" fill="none" xmlns="http://www.w3.org/2000/svg">
<path d="M3.66933 7.44125C4.92933 9.9175 6.95933 11.9387 9.43558 13.2075L11.3606 11.2825C11.5968 11.0463 11.9468 10.9675 12.2531 11.0725C13.2331 11.3962 14.2918 11.5712 15.3768 11.5712C15.8581 11.5712 16.2518 11.965 16.2518 12.4462V15.5C16.2518 15.9812 15.8581 16.375 15.3768 16.375C7.16058 16.375 0.501831 9.71625 0.501831 1.5C0.501831 1.01875 0.895581 0.625 1.37683 0.625H4.43933C4.92058 0.625 5.31433 1.01875 5.31433 1.5C5.31433 2.59375 5.48933 3.64375 5.81308 4.62375C5.90933 4.93 5.83933 5.27125 5.59433 5.51625L3.66933 7.44125Z" fill="white"/>
</svg>
