<svg width="21" height="21" viewBox="0 0 21 21" fill="none" xmlns="http://www.w3.org/2000/svg">
<path d="M10.5 2.62084C11.9983 2.62084 13.2125 3.83501 13.2125 5.33334C13.2125 6.83167 11.9983 8.04584 10.5 8.04584C9.00163 8.04584 7.78746 6.83167 7.78746 5.33334C7.78746 3.83501 9.00163 2.62084 10.5 2.62084ZM10.5 14.2458C14.3362 14.2458 18.3791 16.1317 18.3791 16.9583V18.3792H2.62079V16.9583C2.62079 16.1317 6.66371 14.2458 10.5 14.2458ZM10.5 0.166672C7.64538 0.166672 5.33329 2.47876 5.33329 5.33334C5.33329 8.18792 7.64538 10.5 10.5 10.5C13.3545 10.5 15.6666 8.18792 15.6666 5.33334C15.6666 2.47876 13.3545 0.166672 10.5 0.166672ZM10.5 11.7917C7.05121 11.7917 0.166626 13.5225 0.166626 16.9583V20.8333H20.8333V16.9583C20.8333 13.5225 13.9487 11.7917 10.5 11.7917Z" fill="black" fill-opacity="0.87"/>
</svg>
