<svg width="15" height="17" viewBox="0 0 15 17" fill="none" xmlns="http://www.w3.org/2000/svg">
<path d="M7.36409 0C9.92137 0 11.9791 2.01232 11.9791 4.49667V5.77445C13.4143 6.22247 14.4601 7.52178 14.4601 9.07367V13.1878C14.4601 15.109 12.8673 16.6667 10.9036 16.6667H3.85079C1.88625 16.6667 0.293457 15.109 0.293457 13.1878V9.07367C0.293457 7.52178 1.34008 6.22247 2.77453 5.77445V4.49667C2.783 2.01232 4.84068 0 7.36409 0ZM7.37256 9.4869C6.9661 9.4869 6.63586 9.80986 6.63586 10.2074V12.0458C6.63586 12.4516 6.9661 12.7745 7.37256 12.7745C7.78748 12.7745 8.11773 12.4516 8.11773 12.0458V10.2074C8.11773 9.80986 7.78748 9.4869 7.37256 9.4869ZM7.38102 1.4492C5.66206 1.4492 4.26487 2.80731 4.2564 4.48011V5.59475H10.4972V4.49667C10.4972 2.8156 9.09999 1.4492 7.38102 1.4492Z" fill="white"/>
</svg>
