<?xml version="1.0" standalone="no"?>
<!DOCTYPE svg PUBLIC "-//W3C//DTD SVG 1.1//EN" "http://www.w3.org/Graphics/SVG/1.1/DTD/svg11.dtd"><svg xmlns="http://www.w3.org/2000/svg" style="background-color:#FFF" width="100" height="125"><path stroke="black" fill="none" stroke-width="1" d="M29.91, 35.7L29.25, 35.43L28.93, 34.79L28.93, 29.95L29.22, 29.29L29.88, 29L35.88, 29L35.88, 23L36.17, 22.35L36.83, 22.06L41.65, 22.06L42.32, 22.33L42.6, 23L42.6, 29L48.6, 29L49.27, 29.26L49.59, 29.91L49.59, 34.7L49.32, 35.39L48.65, 35.7L42.65, 35.7L42.65, 41.7L42.37, 42.37L41.7, 42.64L36.86, 42.64L36.2, 42.35L35.91, 41.7L35.91, 35.7L29.91, 35.7"/><path stroke="black" fill="none" stroke-width="1" d="M30.85, 30.85L36.85, 30.85L37.51, 30.57L37.79, 29.91L37.79, 23.91L40.79, 23.91L40.79, 29.91L41.07, 30.57L41.73, 30.85L47.73, 30.85L47.73, 33.85L41.73, 33.85L41.07, 34.13L40.79, 34.79L40.79, 40.79L37.79, 40.79L37.79, 34.79L37.51, 34.13L36.85, 33.85L30.85, 33.85L30.85, 30.85"/><path stroke="black" fill="none" stroke-width="1" d="M28, 72.2L29.84, 72.57L31.33, 73.59L32.35, 75.08L32.72, 76.92L32.56, 78.14L32.09, 79.28L31.29, 80.31L30.3, 81.05L29.18, 81.49L28, 81.64L26.82, 81.49L25.7, 81.05L24.71, 80.31L23.91, 79.28L23.42, 78.07L23.27, 76.85L23.45, 75.66L23.91, 74.56L24.63, 73.61L25.57, 72.86L26.71, 72.38L28, 72.2"/><path stroke="black" fill="none" stroke-width="1" d="M28, 79.75L27.22, 79.64L26.54, 79.35L25.55, 78.34L25.17, 76.96L25.25, 76.23L25.55, 75.5L26.03, 74.89L26.62, 74.44L28, 74.09L29.38, 74.44L29.97, 74.89L30.45, 75.5L30.83, 76.92L30.61, 78.02L30, 78.92L29.1, 79.53L28, 79.75"/><path stroke="black" fill="none" stroke-width="1" d="M94.87, 61.15L94.86, 61.15L95, 61.64L95, 75.06L94.78, 76.15L94.18, 77.04L93.29, 77.64L92.2, 77.86L83.02, 77.86L82.63, 79.71L81.86, 81.41L80.77, 82.92L79.37, 84.19L77.17, 85.37L74.88, 85.89L72.59, 85.8L70.42, 85.14L68.47, 83.97L66.87, 82.33L65.71, 80.28L65.12, 77.86L36.9, 77.86L36.51, 79.71L35.74, 81.41L34.65, 82.92L33.25, 84.19L31.05, 85.37L28.76, 85.89L26.47, 85.8L24.3, 85.14L22.35, 83.97L20.75, 82.33L19.59, 80.28L19, 77.86L7.8, 77.86L6.71, 77.64L5.82, 77.04L5.22, 76.15L5, 75.06L5, 32.4L5.22, 31.31L5.82, 30.42L6.71, 29.82L7.8, 29.6L21.2, 29.6L22.03, 26.3L23.44, 23.23L25.39, 20.48L27.83, 18.11L29.95, 16.64L32.16, 15.51L34.44, 14.72L36.77, 14.24L39.1, 14.08L41.42, 14.22L43.69, 14.65L45.88, 15.35L47.98, 16.32L49.94, 17.54L51.73, 19.01L53.34, 20.71L54.73, 22.63L55.87, 24.76L56.74, 27.08L57.3, 29.6L59.74, 29.6L60.83, 29.82L61.72, 30.42L62.32, 31.31L62.54, 32.4L62.54, 40.73L80.45, 40.73L81.4, 40.86L82.28, 41.21L83.04, 41.78L83.64, 42.53L94.87, 61.15"/><path stroke="black" fill="none" stroke-width="1" d="M39.25, 16L41.55, 16.16L43.73, 16.61L45.77, 17.33L47.66, 18.3L49.38, 19.49L50.93, 20.89L52.28, 22.46L53.42, 24.18L54.34, 26.03L55.02, 27.98L55.46, 30.02L55.63, 32.1L55.53, 34.23L55.13, 36.35L54.44, 38.47L53.42, 40.54L52.13, 42.46L50.65, 44.12L49, 45.52L47.22, 46.68L45.32, 47.57L43.35, 48.21L41.31, 48.59L39.25, 48.72L37.19, 48.59L35.15, 48.21L33.18, 47.57L31.28, 46.68L29.5, 45.52L27.85, 44.12L26.37, 42.46L25.08, 40.54L24.13, 38.61L23.44, 36.58L23.03, 34.48L22.89, 32.33L23.23, 29.04L24.19, 25.98L25.7, 23.2L27.7, 20.79L30.12, 18.79L32.89, 17.29L35.96, 16.33L39.25, 16"/><path stroke="black" fill="none" stroke-width="1" d="M7.83, 76L7.14, 75.7L6.89, 75L6.89, 69.8L22.49, 69.8L21.15, 71.06L20.11, 72.54L19.38, 74.21L19, 76L7.83, 76"/><path stroke="black" fill="none" stroke-width="1" d="M28, 84L26.05, 83.74L24.34, 83L22.91, 81.88L21.83, 80.45L21.13, 78.79L20.86, 77L21.07, 75.15L21.82, 73.33L23.02, 71.77L24.51, 70.65L26.2, 69.99L27.98, 69.76L29.76, 69.98L31.45, 70.65L32.94, 71.76L34.15, 73.31L34.87, 75.04L35.11, 76.89L34.96, 78.32L34.55, 79.66L33.89, 80.86L33.02, 81.91L31.97, 82.78L30.77, 83.44L29.43, 83.85L28, 84"/><path stroke="black" fill="none" stroke-width="1" d="M60.65, 76L36.94, 76L36.56, 74.22L35.84, 72.56L34.81, 71.08L33.48, 69.83L60.65, 69.83L60.65, 76"/><path stroke="black" fill="none" stroke-width="1" d="M60.65, 67.94L6.89, 67.94L6.89, 32.4L7.16, 31.76L7.8, 31.49L21, 31.49L21, 32.33L21.31, 35.66L22.22, 38.88L12.58, 38.88L12.11, 39.06L11.81, 39.44L11.73, 39.91L11.91, 40.38L12.58, 40.77L23.07, 40.77L24.61, 43.21L26.5, 45.37L28.7, 47.21L31.18, 48.69L16.29, 48.69L15.82, 48.87L15.52, 49.25L15.44, 49.72L15.62, 50.19L16.29, 50.58L41.14, 50.58L41.67, 50.42L44.95, 49.67L47.96, 48.36L50.66, 46.57L52.98, 44.34L54.87, 41.75L56.29, 38.84L57.19, 35.68L57.5, 32.33L57.5, 31.49L59.76, 31.49L60.4, 31.76L60.67, 32.4L60.65, 67.94"/><path stroke="black" fill="none" stroke-width="1" d="M74.07, 84L72.12, 83.74L70.41, 83L68.98, 81.88L67.9, 80.45L67.2, 78.79L66.93, 77L67.14, 75.15L67.89, 73.33L69.09, 71.77L70.58, 70.65L72.27, 69.99L74.05, 69.76L75.83, 69.98L77.52, 70.65L79.01, 71.76L80.22, 73.31L80.94, 75.04L81.18, 76.89L81.03, 78.32L80.62, 79.65L79.96, 80.86L79.09, 81.91L78.04, 82.78L76.83, 83.44L75.5, 83.85L74.07, 84"/><path stroke="black" fill="none" stroke-width="1" d="M93.07, 75L92.8, 75.64L92.16, 75.91L83, 75.91L82.41, 73.49L81.25, 71.44L79.65, 69.8L77.7, 68.63L75.53, 67.97L73.24, 67.88L70.95, 68.4L68.75, 69.58L67.35, 70.85L66.26, 72.36L65.49, 74.06L65.1, 75.91L62.54, 75.91L62.54, 42.62L80.45, 42.62L81.35, 42.86L82.02, 43.51L93.11, 61.9L93.07, 75"/><path stroke="black" fill="none" stroke-width="1" d="M78.82, 45.27L79.77, 45.53L80.45, 46.23L87.14, 57.06L87.29, 57.56L87.14, 58.06L86.8, 58.41L86.32, 58.54L66.32, 58.54L65.66, 58.25L65.37, 57.6L65.37, 46.22L65.66, 45.56L66.32, 45.27L78.82, 45.27"/><path stroke="black" fill="none" stroke-width="1" d="M67.26, 56.66L67.26, 47.16L78.82, 47.16L84.59, 56.66L67.26, 56.66"/><path stroke="black" fill="none" stroke-width="1" d="M74.07, 72.2L75.91, 72.57L77.4, 73.59L78.42, 75.08L78.79, 76.92L78.63, 78.14L78.16, 79.28L77.36, 80.31L76.37, 81.05L75.25, 81.49L74.07, 81.64L72.89, 81.49L71.77, 81.05L70.78, 80.31L69.98, 79.28L69.49, 78.07L69.34, 76.85L69.52, 75.66L69.98, 74.56L70.7, 73.61L71.64, 72.86L72.78, 72.38L74.07, 72.2"/><path stroke="black" fill="none" stroke-width="1" d="M74.07, 79.75L73.29, 79.64L72.61, 79.35L71.62, 78.34L71.24, 76.96L71.32, 76.23L71.62, 75.5L72.1, 74.89L72.69, 74.44L74.07, 74.09L75.45, 74.44L76.04, 74.89L76.52, 75.5L76.9, 76.92L76.68, 78.02L76.07, 78.92L75.17, 79.53L74.07, 79.75"/><path stroke="black" fill="none" stroke-width="1" d="M72, 61.06L72.67, 61.45L72.85, 61.92L72.77, 62.39L72.47, 62.77L72, 62.95L67.54, 62.95L66.87, 62.56L66.69, 62.09L66.77, 61.62L67.07, 61.24L67.54, 61.06L72, 61.06"/><path stroke="black" fill="none" stroke-width="1" d="M50, 58.51L50.67, 58.9L50.85, 59.37L50.77, 59.84L50.47, 60.22L50, 60.4L20, 60.4L19.33, 60.01L19.15, 59.54L19.23, 59.07L19.53, 58.69L20, 58.51L50, 58.51"/></svg>