<svg width="30" height="30" viewBox="0 0 30 30" fill="none" xmlns="http://www.w3.org/2000/svg">
<path d="M25 0C22.243 0 20 2.24303 20 4.99998C20 7.39143 23.5431 12.2316 24.3733 13.3332C24.373 13.689 24.3733 14.0384 24.3646 14.3591C24.3555 14.7039 24.6277 14.9914 24.9731 15.0006C24.9787 15.0006 24.9842 15.0006 24.9903 15.0006C25.3272 15.0006 25.6055 14.7314 25.6146 14.3921C25.6232 14.063 25.623 13.7038 25.6232 13.3379C26.4479 12.2438 30 7.39424 30 4.99998C30 2.24303 27.7569 0 25 0ZM25 12.0789C23.6261 10.1886 21.25 6.59121 21.25 4.99998C21.25 2.93209 22.9321 1.24998 25 1.24998C27.0679 1.24998 28.75 2.93209 28.75 4.99998C28.75 6.59121 26.3739 10.1886 25 12.0789Z" fill="#D81324"/>
<path d="M25 3.75C24.3109 3.75 23.75 4.31092 23.75 4.99998C23.75 5.68904 24.3109 6.24996 25 6.24996C25.689 6.24996 26.25 5.6891 26.25 4.99998C26.25 4.31092 25.689 3.75 25 3.75Z" fill="#D81324"/>
<path d="M7.5 13.75C5.43211 13.75 3.75 15.4321 3.75 17.5C3.75 19.5679 5.43211 21.25 7.5 21.25C9.56789 21.25 11.25 19.5679 11.25 17.5C11.25 15.4321 9.56789 13.75 7.5 13.75ZM7.5 20C6.12123 20 4.99998 18.8788 4.99998 17.4999C4.99998 16.1211 6.12123 15 7.5 15C8.87877 15 10 16.1212 10 17.5C10 18.8788 8.87877 20 7.5 20Z" fill="#D81324"/>
<path d="M16.9672 22.5258C16.6437 22.4 16.2836 22.5606 16.1585 22.8828C15.8783 23.6067 15.528 24.4508 15.0556 25.2241C14.8755 25.5189 14.9689 25.9034 15.2631 26.0835C15.3651 26.1458 15.4773 26.1751 15.5884 26.1751C15.799 26.1751 16.0047 26.0689 16.1225 25.876C16.6462 25.0179 17.024 24.1097 17.3243 23.3345C17.4488 23.0128 17.2889 22.6509 16.9672 22.5258Z" fill="#D81324"/>
<path d="M13.4433 27.087C12.8171 27.5832 12.1055 27.9567 11.2668 28.2295C10.9385 28.3363 10.759 28.6891 10.8658 29.0175C10.9519 29.2812 11.1966 29.449 11.4603 29.449C11.5244 29.449 11.5897 29.4393 11.6538 29.4185C12.6224 29.1036 13.4854 28.6489 14.2197 28.0672C14.4901 27.8523 14.5359 27.4593 14.3217 27.1888C14.1056 26.9191 13.7131 26.8709 13.4433 27.087Z" fill="#D81324"/>
<path d="M19.1313 18.0134C18.0998 18.5987 17.5267 19.6149 17.1848 20.3279C17.0353 20.6392 17.1665 21.0127 17.4778 21.1616C17.5651 21.2037 17.6573 21.2232 17.7476 21.2232C17.9807 21.2232 18.2041 21.0926 18.3115 20.8686C18.7455 19.9635 19.1886 19.4184 19.7489 19.0998C20.0486 18.9295 20.1542 18.548 19.9833 18.2477C19.8136 17.9475 19.4334 17.8419 19.1313 18.0134Z" fill="#D81324"/>
<path d="M24.7683 16.466C24.4845 16.2738 24.0944 16.3476 23.9003 16.6332C23.6947 16.9372 23.2735 17.3553 21.9997 17.4694C21.656 17.5006 21.4021 17.8039 21.4332 18.1481C21.4625 18.4729 21.7354 18.717 22.0552 18.717C22.0741 18.717 22.0931 18.7164 22.112 18.7145C23.4652 18.593 24.3886 18.1414 24.9355 17.3339C25.129 17.0483 25.0539 16.6595 24.7683 16.466Z" fill="#D81324"/>
<path d="M8.98096 28.7581C10.953 26.655 15 21.8168 15 17.5C15 13.2947 11.7053 10 7.5 10C3.29467 10 0 13.2947 0 17.5C0 23.0816 6.78223 29.5562 7.07092 29.8291C7.19115 29.9433 7.34561 30 7.5 30C7.95533 30 8.38805 29.9842 8.7982 29.953C9.14244 29.9268 9.40061 29.6271 9.37436 29.2829C9.35561 29.0365 9.19617 28.8443 8.98096 28.7581ZM7.5 28.4937C6.02355 26.9873 1.24998 21.7847 1.24998 17.5C1.24998 13.9953 3.99539 11.25 7.5 11.25C11.0046 11.25 13.75 13.9953 13.75 17.5C13.75 21.7847 8.97645 26.9873 7.5 28.4937Z" fill="#D81324"/>
</svg>
