<svg width="24" height="30" viewBox="0 0 24 30" fill="none" xmlns="http://www.w3.org/2000/svg">
<path d="M12.5 1.99998C12.7761 1.99998 13 1.77609 13 1.5V0.49998C13 0.223828 12.7761 0 12.5 0C12.2238 0 12 0.223887 12 0.49998V1.5C12 1.77615 12.2239 1.99998 12.5 1.99998Z" fill="#D81324"/>
<path d="M15.5 2.49998C15.7761 2.49998 16 2.27609 16 2V0.99998C16 0.723828 15.7761 0.5 15.5 0.5C15.2238 0.5 15 0.723887 15 0.99998V2C15 2.27609 15.2239 2.49998 15.5 2.49998Z" fill="#D81324"/>
<path d="M9.49998 2.49998C9.77613 2.49998 9.99996 2.27609 9.99996 2V0.99998C9.99996 0.723828 9.77607 0.5 9.49998 0.5C9.22389 0.5 9 0.723887 9 0.99998V2C9 2.27609 9.22389 2.49998 9.49998 2.49998Z" fill="#D81324"/>
<path d="M1.50002 24.408V27.5C1.50166 28.88 2.61998 29.9983 4.00004 30H21C22.38 29.9984 23.4983 28.8801 23.5 27.5V10.5C23.4984 9.12003 22.3801 8.00171 21 8.00001H18.819C18.1263 5.07015 15.5104 3.00073 12.4998 3.00073C9.4891 3.00073 6.8733 5.07015 6.18049 8.00001H3.99998C2.61998 8.00171 1.50166 9.12003 1.50002 10.5V17.592C0.902832 17.8032 0.502637 18.3666 0.5 19V23.0001C0.502637 23.6334 0.902832 24.1969 1.50002 24.408ZM22.5 10.5C22.5008 10.8981 22.343 11.2801 22.0616 11.5616C21.7801 11.8431 21.3981 12.0008 21 12H18.5035C18.8317 11.2074 19.0005 10.3579 19 9.50001C19 9.33401 18.992 9.16702 18.9791 9.00003H21C21.8284 9.00003 22.5 9.67163 22.5 10.5ZM7.07803 8.58255C7.42977 6.43854 9.01068 4.70253 11.1125 4.15228C13.2143 3.60202 15.4431 4.3406 16.8003 6.03718C18.1575 7.73376 18.3888 10.0703 17.3905 12H15.4786L15.2391 10.55C15.2344 10.5207 15.2422 10.4908 15.2606 10.4675L16.4361 9.277C16.7252 8.98315 16.8245 8.55173 16.6931 8.16103C16.5716 7.78187 16.2468 7.50354 15.8536 7.44155L14.2246 7.19804C14.205 7.19353 14.189 7.1797 14.1816 7.16106L13.4425 5.60804C13.274 5.23925 12.9058 5.0027 12.5003 5.0027C12.0948 5.0027 11.7266 5.23925 11.558 5.60804L10.8181 7.16505C10.8116 7.17964 10.8003 7.19147 10.7861 7.19856L9.14357 7.44407C8.75141 7.50671 8.42791 7.78479 8.30709 8.16308C8.17566 8.55395 8.27504 8.9855 8.56408 9.27958L9.73508 10.4646C9.75605 10.4884 9.76572 10.5201 9.76156 10.5516L9.52156 12.0016H7.60959C7.0649 10.9507 6.87828 9.75073 7.07809 8.58413V8.58255H7.07803ZM10.45 9.76351L9.27506 8.57399C9.24992 8.54716 9.24236 8.50831 9.25555 8.47397C9.26152 8.45546 9.27353 8.43249 9.29305 8.4295L10.943 8.183C11.2831 8.12358 11.573 7.90233 11.7201 7.58997L12.46 6.03495L12.5001 5.99997L13.2781 7.58698C13.4269 7.90333 13.7217 8.12634 14.0666 8.18347L15.7031 8.42798C15.7256 8.43149 15.7376 8.45446 15.7436 8.47298C15.757 8.50726 15.7494 8.54622 15.7241 8.573L14.5446 9.76802C14.3045 10.019 14.1962 10.3682 14.2521 10.711L14.4656 12H10.5351L10.7486 10.7106C10.8034 10.3655 10.6929 10.0148 10.45 9.76351ZM4.00004 9.00003H6.02105C6.00805 9.16702 6.00008 9.33401 6.00008 9.50001C5.99955 10.3579 6.16848 11.2075 6.49707 12H4.0001C3.45734 12.0018 2.93029 12.1821 2.5001 12.513V10.5C2.50004 9.67163 3.17158 9.00003 4.00004 9.00003ZM4.00004 13H21C21.5426 12.9971 22.0693 12.817 22.5 12.4871V27.5001C22.5 28.3285 21.8284 29.0001 21 29.0001H4.00004C3.17164 29.0001 2.50004 28.3285 2.50004 27.5001V24.5001H7.00004C8.93305 24.5001 10.5 22.933 10.5 21.0001C10.5 19.0671 8.93299 17.5001 7.00004 17.5001H2.50004V14.5001C2.50004 13.6716 3.17158 13 4.00004 13ZM1.50002 19C1.50002 18.7239 1.72391 18.5001 2 18.5001H6.99998C8.38068 18.5001 9.5 19.6194 9.5 21.0001C9.5 22.3808 8.38068 23.5001 6.99998 23.5001H2C1.72385 23.5001 1.50002 23.2763 1.50002 23.0001V19Z" fill="#D81324"/>
<path d="M7 22.5002C7.82846 22.5002 8.5 21.8286 8.5 21.0002C8.5 20.1718 7.8284 19.5002 7 19.5002C6.1716 19.5002 5.5 20.1718 5.5 21.0002C5.5 21.8286 6.17154 22.5002 7 22.5002ZM7 20.5003C7.27615 20.5003 7.49998 20.7241 7.49998 21.0002C7.49998 21.2764 7.27609 21.5002 7 21.5002C6.72385 21.5002 6.50002 21.2764 6.50002 21.0002C6.50002 20.7241 6.72385 20.5003 7 20.5003Z" fill="#D81324"/>
<path d="M19.5 15H20C20.2761 15 20.4999 14.7761 20.4999 14.5C20.4999 14.2238 20.2761 14 20 14H19.5C19.2238 14 19 14.2239 19 14.5C19 14.7761 19.2238 15 19.5 15Z" fill="#D81324"/>
<path d="M17 15H17.5C17.7761 15 17.9999 14.7761 17.9999 14.5C17.9999 14.2238 17.7761 14 17.5 14H17C16.7238 14 16.5 14.2239 16.5 14.5C16.5 14.7761 16.7239 15 17 15Z" fill="#D81324"/>
<path d="M14.5 15H15C15.2761 15 15.4999 14.7761 15.4999 14.5C15.4999 14.2238 15.2761 14 15 14H14.5C14.2238 14 14 14.2239 14 14.5C13.9999 14.7761 14.2238 15 14.5 15Z" fill="#D81324"/>
<path d="M12 15H12.5C12.7761 15 13 14.7761 13 14.5C13 14.2238 12.7761 14 12.5 14H12C11.7238 14 11.5 14.2239 11.5 14.5C11.5 14.7761 11.7238 15 12 15Z" fill="#D81324"/>
<path d="M9.49998 15H9.99996C10.2761 15 10.4999 14.7761 10.4999 14.5C10.4999 14.2238 10.2761 14 9.99996 14H9.49998C9.22383 14 9 14.2239 9 14.5C9 14.7761 9.22389 15 9.49998 15Z" fill="#D81324"/>
<path d="M6.99998 15H7.49996C7.77611 15 7.99994 14.7761 7.99994 14.5C7.99994 14.2238 7.77611 14 7.49996 14H6.99998C6.72383 14 6.5 14.2239 6.5 14.5C6.49994 14.7761 6.72383 15 6.99998 15Z" fill="#D81324"/>
<path d="M4.49998 15H4.99996C5.27611 15 5.49994 14.7761 5.49994 14.5C5.49994 14.2238 5.27605 14 4.99996 14H4.49998C4.22383 14 4 14.2239 4 14.5C4 14.7761 4.22383 15 4.49998 15Z" fill="#D81324"/>
<path d="M19.5 28H20C20.2761 28 20.4999 27.7761 20.4999 27.5C20.4999 27.2238 20.2761 27 20 27H19.5C19.2238 27 19 27.2239 19 27.5C19 27.7761 19.2238 28 19.5 28Z" fill="#D81324"/>
<path d="M17 28H17.5C17.7761 28 17.9999 27.7761 17.9999 27.5C17.9999 27.2238 17.7761 27 17.5 27H17C16.7238 27 16.5 27.2239 16.5 27.5C16.5 27.7761 16.7239 28 17 28Z" fill="#D81324"/>
<path d="M14.5 28H15C15.2761 28 15.4999 27.7761 15.4999 27.5C15.4999 27.2238 15.2761 27 15 27H14.5C14.2238 27 14 27.2239 14 27.5C13.9999 27.7761 14.2238 28 14.5 28Z" fill="#D81324"/>
<path d="M12 28H12.5C12.7761 28 13 27.7761 13 27.5C13 27.2238 12.7761 27 12.5 27H12C11.7238 27 11.5 27.2239 11.5 27.5C11.5 27.7761 11.7238 28 12 28Z" fill="#D81324"/>
<path d="M9.99996 27.0002H9.49998C9.22383 27.0002 9 27.2241 9 27.5002C9 27.7764 9.22383 28.0002 9.49998 28.0002H9.99996C10.2761 28.0002 10.4999 27.7763 10.4999 27.5002C10.4999 27.2241 10.2761 27.0002 9.99996 27.0002Z" fill="#D81324"/>
<path d="M7.49996 27.0002H6.99998C6.72383 27.0002 6.5 27.2241 6.5 27.5002C6.5 27.7764 6.72389 28.0002 6.99998 28.0002H7.49996C7.77611 28.0002 7.99994 27.7763 7.99994 27.5002C7.99994 27.2241 7.77611 27.0002 7.49996 27.0002Z" fill="#D81324"/>
<path d="M4.99996 27.0002H4.49998C4.22383 27.0002 4 27.2241 4 27.5002C4 27.7764 4.22389 28.0002 4.49998 28.0002H4.99996C5.27611 28.0002 5.49994 27.7763 5.49994 27.5002C5.5 27.2241 5.27611 27.0002 4.99996 27.0002Z" fill="#D81324"/>
</svg>
