<svg width="12" height="18" viewBox="0 0 12 18" fill="none" xmlns="http://www.w3.org/2000/svg">
<g clip-path="url(#clip0_83_3592)">
<path d="M9 1.125C9.29837 1.125 9.58452 1.24353 9.7955 1.4545C10.0065 1.66548 10.125 1.95163 10.125 2.25V15.75C10.125 16.0484 10.0065 16.3345 9.7955 16.5455C9.58452 16.7565 9.29837 16.875 9 16.875H2.25C1.95163 16.875 1.66548 16.7565 1.45451 16.5455C1.24353 16.3345 1.125 16.0484 1.125 15.75V2.25C1.125 1.95163 1.24353 1.66548 1.45451 1.4545C1.66548 1.24353 1.95163 1.125 2.25 1.125H9ZM2.25 0C1.65326 0 1.08097 0.237053 0.65901 0.65901C0.237053 1.08097 0 1.65326 0 2.25V15.75C0 16.3467 0.237053 16.919 0.65901 17.341C1.08097 17.7629 1.65326 18 2.25 18H9C9.59674 18 10.169 17.7629 10.591 17.341C11.0129 16.919 11.25 16.3467 11.25 15.75V2.25C11.25 1.65326 11.0129 1.08097 10.591 0.65901C10.169 0.237053 9.59674 0 9 0L2.25 0Z" fill="#555555"/>
<path d="M5.625 15.75C5.92337 15.75 6.20952 15.6315 6.4205 15.4205C6.63147 15.2095 6.75 14.9234 6.75 14.625C6.75 14.3266 6.63147 14.0405 6.4205 13.8295C6.20952 13.6185 5.92337 13.5 5.625 13.5C5.32663 13.5 5.04048 13.6185 4.82951 13.8295C4.61853 14.0405 4.5 14.3266 4.5 14.625C4.5 14.9234 4.61853 15.2095 4.82951 15.4205C5.04048 15.6315 5.32663 15.75 5.625 15.75Z" fill="#555555"/>
</g>
<defs>
<clipPath id="clip0_83_3592">
<rect width="11.25" height="18" fill="white"/>
</clipPath>
</defs>
</svg>
