<svg width="16" height="22" viewBox="0 0 16 22" fill="none" xmlns="http://www.w3.org/2000/svg">
<g clip-path="url(#clip0_83_3615)">
<path d="M7.61035 5.48291C7.06645 5.48291 6.53477 5.64419 6.08253 5.94637C5.6303 6.24854 5.27783 6.67803 5.06968 7.18053C4.86154 7.68303 4.80708 8.23596 4.91319 8.76941C5.0193 9.30286 5.28121 9.79286 5.66581 10.1775C6.0504 10.562 6.54041 10.824 7.07385 10.9301C7.6073 11.0362 8.16024 10.9817 8.66273 10.7736C9.16523 10.5654 9.59472 10.213 9.89689 9.76073C10.1991 9.30849 10.3604 8.77681 10.3604 8.23291C10.3595 7.50382 10.0695 6.80483 9.55398 6.28928C9.03843 5.77374 8.33944 5.48374 7.61035 5.48291ZM7.61035 9.60791C7.3384 9.60791 7.07256 9.52727 6.84644 9.37618C6.62033 9.22509 6.44409 9.01035 6.34002 8.7591C6.23595 8.50785 6.20872 8.23138 6.26177 7.96466C6.31483 7.69794 6.44578 7.45294 6.63808 7.26064C6.83038 7.06834 7.07538 6.93738 7.3421 6.88433C7.60883 6.83128 7.88529 6.85851 8.13654 6.96258C8.38779 7.06665 8.60254 7.24288 8.75362 7.469C8.90471 7.69512 8.98535 7.96096 8.98535 8.23291C8.98493 8.59745 8.83993 8.94695 8.58216 9.20472C8.32439 9.46249 7.9749 9.60749 7.61035 9.60791Z" fill="#555555"/>
<path d="M12.8956 2.9438C11.589 1.63757 9.84492 0.861618 7.99989 0.765701C6.15486 0.669783 4.33969 1.2607 2.90472 2.42441C1.46976 3.58812 0.516711 5.24212 0.229529 7.06719C-0.057653 8.89225 0.341386 10.759 1.34963 12.3072L6.54485 20.2827C6.66047 20.4602 6.81854 20.606 7.00475 20.7069C7.19097 20.8079 7.39942 20.8607 7.61123 20.8607C7.82304 20.8607 8.03149 20.8079 8.21771 20.7069C8.40392 20.606 8.562 20.4602 8.67761 20.2827L13.873 12.3072C14.8085 10.871 15.222 9.15695 15.044 7.45223C14.8661 5.74752 14.1076 4.15577 12.8956 2.9438ZM12.7209 11.5566L7.61125 19.4006L2.50154 11.5566C0.937474 9.15558 1.27293 5.94238 3.29917 3.91606C3.86543 3.34978 4.53769 2.90058 5.27756 2.59411C6.01743 2.28764 6.81042 2.1299 7.61125 2.1299C8.41208 2.1299 9.20507 2.28764 9.94494 2.59411C10.6848 2.90058 11.3571 3.34978 11.9233 3.91606C13.9496 5.94238 14.285 9.15558 12.7209 11.5566Z" fill="#555555"/>
</g>
<defs>
<clipPath id="clip0_83_3615">
<rect width="15.4" height="22" fill="white"/>
</clipPath>
</defs>
</svg>
